<?xml version="1.0" encoding="utf-8" standalone="no"?>
<!DOCTYPE svg PUBLIC "-//W3C//DTD SVG 1.1//EN"
  "http://www.w3.org/Graphics/SVG/1.1/DTD/svg11.dtd">
<!-- Created with matplotlib (https://matplotlib.org/) -->
<svg height="329.658125pt" version="1.1" viewBox="0 0 632.623125 329.658125" width="632.623125pt" xmlns="http://www.w3.org/2000/svg" xmlns:xlink="http://www.w3.org/1999/xlink">
 <metadata>
  <rdf:RDF xmlns:cc="http://creativecommons.org/ns#" xmlns:dc="http://purl.org/dc/elements/1.1/" xmlns:rdf="http://www.w3.org/1999/02/22-rdf-syntax-ns#">
   <cc:Work>
    <dc:type rdf:resource="http://purl.org/dc/dcmitype/StillImage"/>
    <dc:date>2020-10-04T19:02:38.931602</dc:date>
    <dc:format>image/svg+xml</dc:format>
    <dc:creator>
     <cc:Agent>
      <dc:title>Matplotlib v3.3.2, https://matplotlib.org/</dc:title>
     </cc:Agent>
    </dc:creator>
   </cc:Work>
  </rdf:RDF>
 </metadata>
 <defs>
  <style type="text/css">*{stroke-linecap:butt;stroke-linejoin:round;}</style>
 </defs>
 <g id="figure_1">
  <g id="patch_1">
   <path d="M 0 329.658125 
L 632.623125 329.658125 
L 632.623125 0 
L 0 0 
z
" style="fill:#ffffff;"/>
  </g>
  <g id="axes_1">
   <g id="patch_2">
    <path d="M 67.423125 279 
L 625.423125 279 
L 625.423125 7.2 
L 67.423125 7.2 
z
" style="fill:#ffffff;"/>
   </g>
   <g id="matplotlib.axis_1">
    <g id="xtick_1">
     <g id="line2d_1">
      <path clip-path="url(#pb1a71c4285)" d="M 87.662794 279 
L 87.662794 7.2 
" style="fill:none;stroke:#b0b0b0;stroke-linecap:square;stroke-width:0.8;"/>
     </g>
     <g id="line2d_2">
      <defs>
       <path d="M 0 0 
L 0 3.5 
" id="m3f8fe89f11" style="stroke:#000000;stroke-width:0.8;"/>
      </defs>
      <g>
       <use style="stroke:#000000;stroke-width:0.8;" x="87.662794" xlink:href="#m3f8fe89f11" y="279"/>
      </g>
     </g>
     <g id="text_1">
      <!-- 0.00 -->
      <g transform="translate(76.529982 293.598437)scale(0.1 -0.1)">
       <defs>
        <path d="M 31.78125 66.40625 
Q 24.171875 66.40625 20.328125 58.90625 
Q 16.5 51.421875 16.5 36.375 
Q 16.5 21.390625 20.328125 13.890625 
Q 24.171875 6.390625 31.78125 6.390625 
Q 39.453125 6.390625 43.28125 13.890625 
Q 47.125 21.390625 47.125 36.375 
Q 47.125 51.421875 43.28125 58.90625 
Q 39.453125 66.40625 31.78125 66.40625 
z
M 31.78125 74.21875 
Q 44.046875 74.21875 50.515625 64.515625 
Q 56.984375 54.828125 56.984375 36.375 
Q 56.984375 17.96875 50.515625 8.265625 
Q 44.046875 -1.421875 31.78125 -1.421875 
Q 19.53125 -1.421875 13.0625 8.265625 
Q 6.59375 17.96875 6.59375 36.375 
Q 6.59375 54.828125 13.0625 64.515625 
Q 19.53125 74.21875 31.78125 74.21875 
z
" id="DejaVuSans-48"/>
        <path d="M 10.6875 12.40625 
L 21 12.40625 
L 21 0 
L 10.6875 0 
z
" id="DejaVuSans-46"/>
       </defs>
       <use xlink:href="#DejaVuSans-48"/>
       <use x="63.623047" xlink:href="#DejaVuSans-46"/>
       <use x="95.410156" xlink:href="#DejaVuSans-48"/>
       <use x="159.033203" xlink:href="#DejaVuSans-48"/>
      </g>
     </g>
    </g>
    <g id="xtick_2">
     <g id="line2d_3">
      <path clip-path="url(#pb1a71c4285)" d="M 151.712381 279 
L 151.712381 7.2 
" style="fill:none;stroke:#b0b0b0;stroke-linecap:square;stroke-width:0.8;"/>
     </g>
     <g id="line2d_4">
      <g>
       <use style="stroke:#000000;stroke-width:0.8;" x="151.712381" xlink:href="#m3f8fe89f11" y="279"/>
      </g>
     </g>
     <g id="text_2">
      <!-- 0.25 -->
      <g transform="translate(140.579569 293.598437)scale(0.1 -0.1)">
       <defs>
        <path d="M 19.1875 8.296875 
L 53.609375 8.296875 
L 53.609375 0 
L 7.328125 0 
L 7.328125 8.296875 
Q 12.9375 14.109375 22.625 23.890625 
Q 32.328125 33.6875 34.8125 36.53125 
Q 39.546875 41.84375 41.421875 45.53125 
Q 43.3125 49.21875 43.3125 52.78125 
Q 43.3125 58.59375 39.234375 62.25 
Q 35.15625 65.921875 28.609375 65.921875 
Q 23.96875 65.921875 18.8125 64.3125 
Q 13.671875 62.703125 7.8125 59.421875 
L 7.8125 69.390625 
Q 13.765625 71.78125 18.9375 73 
Q 24.125 74.21875 28.421875 74.21875 
Q 39.75 74.21875 46.484375 68.546875 
Q 53.21875 62.890625 53.21875 53.421875 
Q 53.21875 48.921875 51.53125 44.890625 
Q 49.859375 40.875 45.40625 35.40625 
Q 44.1875 33.984375 37.640625 27.21875 
Q 31.109375 20.453125 19.1875 8.296875 
z
" id="DejaVuSans-50"/>
        <path d="M 10.796875 72.90625 
L 49.515625 72.90625 
L 49.515625 64.59375 
L 19.828125 64.59375 
L 19.828125 46.734375 
Q 21.96875 47.46875 24.109375 47.828125 
Q 26.265625 48.1875 28.421875 48.1875 
Q 40.625 48.1875 47.75 41.5 
Q 54.890625 34.8125 54.890625 23.390625 
Q 54.890625 11.625 47.5625 5.09375 
Q 40.234375 -1.421875 26.90625 -1.421875 
Q 22.3125 -1.421875 17.546875 -0.640625 
Q 12.796875 0.140625 7.71875 1.703125 
L 7.71875 11.625 
Q 12.109375 9.234375 16.796875 8.0625 
Q 21.484375 6.890625 26.703125 6.890625 
Q 35.15625 6.890625 40.078125 11.328125 
Q 45.015625 15.765625 45.015625 23.390625 
Q 45.015625 31 40.078125 35.4375 
Q 35.15625 39.890625 26.703125 39.890625 
Q 22.75 39.890625 18.8125 39.015625 
Q 14.890625 38.140625 10.796875 36.28125 
z
" id="DejaVuSans-53"/>
       </defs>
       <use xlink:href="#DejaVuSans-48"/>
       <use x="63.623047" xlink:href="#DejaVuSans-46"/>
       <use x="95.410156" xlink:href="#DejaVuSans-50"/>
       <use x="159.033203" xlink:href="#DejaVuSans-53"/>
      </g>
     </g>
    </g>
    <g id="xtick_3">
     <g id="line2d_5">
      <path clip-path="url(#pb1a71c4285)" d="M 215.761968 279 
L 215.761968 7.2 
" style="fill:none;stroke:#b0b0b0;stroke-linecap:square;stroke-width:0.8;"/>
     </g>
     <g id="line2d_6">
      <g>
       <use style="stroke:#000000;stroke-width:0.8;" x="215.761968" xlink:href="#m3f8fe89f11" y="279"/>
      </g>
     </g>
     <g id="text_3">
      <!-- 0.50 -->
      <g transform="translate(204.629155 293.598437)scale(0.1 -0.1)">
       <use xlink:href="#DejaVuSans-48"/>
       <use x="63.623047" xlink:href="#DejaVuSans-46"/>
       <use x="95.410156" xlink:href="#DejaVuSans-53"/>
       <use x="159.033203" xlink:href="#DejaVuSans-48"/>
      </g>
     </g>
    </g>
    <g id="xtick_4">
     <g id="line2d_7">
      <path clip-path="url(#pb1a71c4285)" d="M 279.811555 279 
L 279.811555 7.2 
" style="fill:none;stroke:#b0b0b0;stroke-linecap:square;stroke-width:0.8;"/>
     </g>
     <g id="line2d_8">
      <g>
       <use style="stroke:#000000;stroke-width:0.8;" x="279.811555" xlink:href="#m3f8fe89f11" y="279"/>
      </g>
     </g>
     <g id="text_4">
      <!-- 0.75 -->
      <g transform="translate(268.678742 293.598437)scale(0.1 -0.1)">
       <defs>
        <path d="M 8.203125 72.90625 
L 55.078125 72.90625 
L 55.078125 68.703125 
L 28.609375 0 
L 18.3125 0 
L 43.21875 64.59375 
L 8.203125 64.59375 
z
" id="DejaVuSans-55"/>
       </defs>
       <use xlink:href="#DejaVuSans-48"/>
       <use x="63.623047" xlink:href="#DejaVuSans-46"/>
       <use x="95.410156" xlink:href="#DejaVuSans-55"/>
       <use x="159.033203" xlink:href="#DejaVuSans-53"/>
      </g>
     </g>
    </g>
    <g id="xtick_5">
     <g id="line2d_9">
      <path clip-path="url(#pb1a71c4285)" d="M 343.861142 279 
L 343.861142 7.2 
" style="fill:none;stroke:#b0b0b0;stroke-linecap:square;stroke-width:0.8;"/>
     </g>
     <g id="line2d_10">
      <g>
       <use style="stroke:#000000;stroke-width:0.8;" x="343.861142" xlink:href="#m3f8fe89f11" y="279"/>
      </g>
     </g>
     <g id="text_5">
      <!-- 1.00 -->
      <g transform="translate(332.728329 293.598437)scale(0.1 -0.1)">
       <defs>
        <path d="M 12.40625 8.296875 
L 28.515625 8.296875 
L 28.515625 63.921875 
L 10.984375 60.40625 
L 10.984375 69.390625 
L 28.421875 72.90625 
L 38.28125 72.90625 
L 38.28125 8.296875 
L 54.390625 8.296875 
L 54.390625 0 
L 12.40625 0 
z
" id="DejaVuSans-49"/>
       </defs>
       <use xlink:href="#DejaVuSans-49"/>
       <use x="63.623047" xlink:href="#DejaVuSans-46"/>
       <use x="95.410156" xlink:href="#DejaVuSans-48"/>
       <use x="159.033203" xlink:href="#DejaVuSans-48"/>
      </g>
     </g>
    </g>
    <g id="xtick_6">
     <g id="line2d_11">
      <path clip-path="url(#pb1a71c4285)" d="M 407.910728 279 
L 407.910728 7.2 
" style="fill:none;stroke:#b0b0b0;stroke-linecap:square;stroke-width:0.8;"/>
     </g>
     <g id="line2d_12">
      <g>
       <use style="stroke:#000000;stroke-width:0.8;" x="407.910728" xlink:href="#m3f8fe89f11" y="279"/>
      </g>
     </g>
     <g id="text_6">
      <!-- 1.25 -->
      <g transform="translate(396.777916 293.598437)scale(0.1 -0.1)">
       <use xlink:href="#DejaVuSans-49"/>
       <use x="63.623047" xlink:href="#DejaVuSans-46"/>
       <use x="95.410156" xlink:href="#DejaVuSans-50"/>
       <use x="159.033203" xlink:href="#DejaVuSans-53"/>
      </g>
     </g>
    </g>
    <g id="xtick_7">
     <g id="line2d_13">
      <path clip-path="url(#pb1a71c4285)" d="M 471.960315 279 
L 471.960315 7.2 
" style="fill:none;stroke:#b0b0b0;stroke-linecap:square;stroke-width:0.8;"/>
     </g>
     <g id="line2d_14">
      <g>
       <use style="stroke:#000000;stroke-width:0.8;" x="471.960315" xlink:href="#m3f8fe89f11" y="279"/>
      </g>
     </g>
     <g id="text_7">
      <!-- 1.50 -->
      <g transform="translate(460.827503 293.598437)scale(0.1 -0.1)">
       <use xlink:href="#DejaVuSans-49"/>
       <use x="63.623047" xlink:href="#DejaVuSans-46"/>
       <use x="95.410156" xlink:href="#DejaVuSans-53"/>
       <use x="159.033203" xlink:href="#DejaVuSans-48"/>
      </g>
     </g>
    </g>
    <g id="xtick_8">
     <g id="line2d_15">
      <path clip-path="url(#pb1a71c4285)" d="M 536.009902 279 
L 536.009902 7.2 
" style="fill:none;stroke:#b0b0b0;stroke-linecap:square;stroke-width:0.8;"/>
     </g>
     <g id="line2d_16">
      <g>
       <use style="stroke:#000000;stroke-width:0.8;" x="536.009902" xlink:href="#m3f8fe89f11" y="279"/>
      </g>
     </g>
     <g id="text_8">
      <!-- 1.75 -->
      <g transform="translate(524.877089 293.598437)scale(0.1 -0.1)">
       <use xlink:href="#DejaVuSans-49"/>
       <use x="63.623047" xlink:href="#DejaVuSans-46"/>
       <use x="95.410156" xlink:href="#DejaVuSans-55"/>
       <use x="159.033203" xlink:href="#DejaVuSans-53"/>
      </g>
     </g>
    </g>
    <g id="xtick_9">
     <g id="line2d_17">
      <path clip-path="url(#pb1a71c4285)" d="M 600.059489 279 
L 600.059489 7.2 
" style="fill:none;stroke:#b0b0b0;stroke-linecap:square;stroke-width:0.8;"/>
     </g>
     <g id="line2d_18">
      <g>
       <use style="stroke:#000000;stroke-width:0.8;" x="600.059489" xlink:href="#m3f8fe89f11" y="279"/>
      </g>
     </g>
     <g id="text_9">
      <!-- 2.00 -->
      <g transform="translate(588.926676 293.598437)scale(0.1 -0.1)">
       <use xlink:href="#DejaVuSans-50"/>
       <use x="63.623047" xlink:href="#DejaVuSans-46"/>
       <use x="95.410156" xlink:href="#DejaVuSans-48"/>
       <use x="159.033203" xlink:href="#DejaVuSans-48"/>
      </g>
     </g>
    </g>
    <g id="text_10">
     <!-- $\frac{r}{R_0}$ -->
     <g transform="translate(338.348125 313.788125)scale(0.17 -0.17)">
      <defs>
       <path d="M 44.578125 46.390625 
Q 43.21875 47.125 41.453125 47.515625 
Q 39.703125 47.90625 37.703125 47.90625 
Q 30.515625 47.90625 25.140625 42.453125 
Q 19.78125 37.015625 18.015625 27.875 
L 12.5 0 
L 3.515625 0 
L 14.203125 54.6875 
L 23.1875 54.6875 
L 21.484375 46.1875 
Q 25.046875 50.921875 30 53.453125 
Q 34.96875 56 40.578125 56 
Q 42.046875 56 43.453125 55.828125 
Q 44.875 55.671875 46.296875 55.28125 
z
" id="DejaVuSans-Oblique-114"/>
       <path d="M 25.203125 64.796875 
L 20.21875 38.921875 
L 32.90625 38.921875 
Q 40.375 38.921875 44.984375 43.046875 
Q 49.609375 47.171875 49.609375 53.8125 
Q 49.609375 59.125 46.5 61.953125 
Q 43.40625 64.796875 37.59375 64.796875 
z
M 43.3125 35.015625 
Q 46.4375 34.28125 48.515625 31.390625 
Q 50.59375 28.515625 53.328125 19.921875 
L 59.515625 0 
L 49.125 0 
L 43.40625 18.703125 
Q 41.21875 25.921875 38.328125 28.359375 
Q 35.453125 30.8125 29.5 30.8125 
L 18.609375 30.8125 
L 12.59375 0 
L 2.6875 0 
L 16.890625 72.90625 
L 39.109375 72.90625 
Q 49.21875 72.90625 54.609375 68.328125 
Q 60.015625 63.765625 60.015625 55.171875 
Q 60.015625 47.5625 55.421875 41.984375 
Q 50.828125 36.421875 43.3125 35.015625 
z
" id="DejaVuSans-Oblique-82"/>
      </defs>
      <use transform="translate(26 43.8)scale(0.7)" xlink:href="#DejaVuSans-Oblique-114"/>
      <use transform="translate(0 -38.484375)scale(0.7)" xlink:href="#DejaVuSans-Oblique-82"/>
      <use transform="translate(48.637695 -49.96875)scale(0.49)" xlink:href="#DejaVuSans-48"/>
      <path d="M 0 18.8 
L 0 25.05 
L 81.727051 25.05 
L 81.727051 18.8 
L 0 18.8 
z
"/>
     </g>
    </g>
   </g>
   <g id="matplotlib.axis_2">
    <g id="ytick_1">
     <g id="line2d_19">
      <path clip-path="url(#pb1a71c4285)" d="M 67.423125 250.554752 
L 625.423125 250.554752 
" style="fill:none;stroke:#b0b0b0;stroke-linecap:square;stroke-width:0.8;"/>
     </g>
     <g id="line2d_20">
      <defs>
       <path d="M 0 0 
L -3.5 0 
" id="m82c508296e" style="stroke:#000000;stroke-width:0.8;"/>
      </defs>
      <g>
       <use style="stroke:#000000;stroke-width:0.8;" x="67.423125" xlink:href="#m82c508296e" y="250.554752"/>
      </g>
     </g>
     <g id="text_11">
      <!-- 0.2 -->
      <g transform="translate(44.52 254.35397)scale(0.1 -0.1)">
       <use xlink:href="#DejaVuSans-48"/>
       <use x="63.623047" xlink:href="#DejaVuSans-46"/>
       <use x="95.410156" xlink:href="#DejaVuSans-50"/>
      </g>
     </g>
    </g>
    <g id="ytick_2">
     <g id="line2d_21">
      <path clip-path="url(#pb1a71c4285)" d="M 67.423125 206.796327 
L 625.423125 206.796327 
" style="fill:none;stroke:#b0b0b0;stroke-linecap:square;stroke-width:0.8;"/>
     </g>
     <g id="line2d_22">
      <g>
       <use style="stroke:#000000;stroke-width:0.8;" x="67.423125" xlink:href="#m82c508296e" y="206.796327"/>
      </g>
     </g>
     <g id="text_12">
      <!-- 0.4 -->
      <g transform="translate(44.52 210.595545)scale(0.1 -0.1)">
       <defs>
        <path d="M 37.796875 64.3125 
L 12.890625 25.390625 
L 37.796875 25.390625 
z
M 35.203125 72.90625 
L 47.609375 72.90625 
L 47.609375 25.390625 
L 58.015625 25.390625 
L 58.015625 17.1875 
L 47.609375 17.1875 
L 47.609375 0 
L 37.796875 0 
L 37.796875 17.1875 
L 4.890625 17.1875 
L 4.890625 26.703125 
z
" id="DejaVuSans-52"/>
       </defs>
       <use xlink:href="#DejaVuSans-48"/>
       <use x="63.623047" xlink:href="#DejaVuSans-46"/>
       <use x="95.410156" xlink:href="#DejaVuSans-52"/>
      </g>
     </g>
    </g>
    <g id="ytick_3">
     <g id="line2d_23">
      <path clip-path="url(#pb1a71c4285)" d="M 67.423125 163.037902 
L 625.423125 163.037902 
" style="fill:none;stroke:#b0b0b0;stroke-linecap:square;stroke-width:0.8;"/>
     </g>
     <g id="line2d_24">
      <g>
       <use style="stroke:#000000;stroke-width:0.8;" x="67.423125" xlink:href="#m82c508296e" y="163.037902"/>
      </g>
     </g>
     <g id="text_13">
      <!-- 0.6 -->
      <g transform="translate(44.52 166.837121)scale(0.1 -0.1)">
       <defs>
        <path d="M 33.015625 40.375 
Q 26.375 40.375 22.484375 35.828125 
Q 18.609375 31.296875 18.609375 23.390625 
Q 18.609375 15.53125 22.484375 10.953125 
Q 26.375 6.390625 33.015625 6.390625 
Q 39.65625 6.390625 43.53125 10.953125 
Q 47.40625 15.53125 47.40625 23.390625 
Q 47.40625 31.296875 43.53125 35.828125 
Q 39.65625 40.375 33.015625 40.375 
z
M 52.59375 71.296875 
L 52.59375 62.3125 
Q 48.875 64.0625 45.09375 64.984375 
Q 41.3125 65.921875 37.59375 65.921875 
Q 27.828125 65.921875 22.671875 59.328125 
Q 17.53125 52.734375 16.796875 39.40625 
Q 19.671875 43.65625 24.015625 45.921875 
Q 28.375 48.1875 33.59375 48.1875 
Q 44.578125 48.1875 50.953125 41.515625 
Q 57.328125 34.859375 57.328125 23.390625 
Q 57.328125 12.15625 50.6875 5.359375 
Q 44.046875 -1.421875 33.015625 -1.421875 
Q 20.359375 -1.421875 13.671875 8.265625 
Q 6.984375 17.96875 6.984375 36.375 
Q 6.984375 53.65625 15.1875 63.9375 
Q 23.390625 74.21875 37.203125 74.21875 
Q 40.921875 74.21875 44.703125 73.484375 
Q 48.484375 72.75 52.59375 71.296875 
z
" id="DejaVuSans-54"/>
       </defs>
       <use xlink:href="#DejaVuSans-48"/>
       <use x="63.623047" xlink:href="#DejaVuSans-46"/>
       <use x="95.410156" xlink:href="#DejaVuSans-54"/>
      </g>
     </g>
    </g>
    <g id="ytick_4">
     <g id="line2d_25">
      <path clip-path="url(#pb1a71c4285)" d="M 67.423125 119.279477 
L 625.423125 119.279477 
" style="fill:none;stroke:#b0b0b0;stroke-linecap:square;stroke-width:0.8;"/>
     </g>
     <g id="line2d_26">
      <g>
       <use style="stroke:#000000;stroke-width:0.8;" x="67.423125" xlink:href="#m82c508296e" y="119.279477"/>
      </g>
     </g>
     <g id="text_14">
      <!-- 0.8 -->
      <g transform="translate(44.52 123.078696)scale(0.1 -0.1)">
       <defs>
        <path d="M 31.78125 34.625 
Q 24.75 34.625 20.71875 30.859375 
Q 16.703125 27.09375 16.703125 20.515625 
Q 16.703125 13.921875 20.71875 10.15625 
Q 24.75 6.390625 31.78125 6.390625 
Q 38.8125 6.390625 42.859375 10.171875 
Q 46.921875 13.96875 46.921875 20.515625 
Q 46.921875 27.09375 42.890625 30.859375 
Q 38.875 34.625 31.78125 34.625 
z
M 21.921875 38.8125 
Q 15.578125 40.375 12.03125 44.71875 
Q 8.5 49.078125 8.5 55.328125 
Q 8.5 64.0625 14.71875 69.140625 
Q 20.953125 74.21875 31.78125 74.21875 
Q 42.671875 74.21875 48.875 69.140625 
Q 55.078125 64.0625 55.078125 55.328125 
Q 55.078125 49.078125 51.53125 44.71875 
Q 48 40.375 41.703125 38.8125 
Q 48.828125 37.15625 52.796875 32.3125 
Q 56.78125 27.484375 56.78125 20.515625 
Q 56.78125 9.90625 50.3125 4.234375 
Q 43.84375 -1.421875 31.78125 -1.421875 
Q 19.734375 -1.421875 13.25 4.234375 
Q 6.78125 9.90625 6.78125 20.515625 
Q 6.78125 27.484375 10.78125 32.3125 
Q 14.796875 37.15625 21.921875 38.8125 
z
M 18.3125 54.390625 
Q 18.3125 48.734375 21.84375 45.5625 
Q 25.390625 42.390625 31.78125 42.390625 
Q 38.140625 42.390625 41.71875 45.5625 
Q 45.3125 48.734375 45.3125 54.390625 
Q 45.3125 60.0625 41.71875 63.234375 
Q 38.140625 66.40625 31.78125 66.40625 
Q 25.390625 66.40625 21.84375 63.234375 
Q 18.3125 60.0625 18.3125 54.390625 
z
" id="DejaVuSans-56"/>
       </defs>
       <use xlink:href="#DejaVuSans-48"/>
       <use x="63.623047" xlink:href="#DejaVuSans-46"/>
       <use x="95.410156" xlink:href="#DejaVuSans-56"/>
      </g>
     </g>
    </g>
    <g id="ytick_5">
     <g id="line2d_27">
      <path clip-path="url(#pb1a71c4285)" d="M 67.423125 75.521052 
L 625.423125 75.521052 
" style="fill:none;stroke:#b0b0b0;stroke-linecap:square;stroke-width:0.8;"/>
     </g>
     <g id="line2d_28">
      <g>
       <use style="stroke:#000000;stroke-width:0.8;" x="67.423125" xlink:href="#m82c508296e" y="75.521052"/>
      </g>
     </g>
     <g id="text_15">
      <!-- 1.0 -->
      <g transform="translate(44.52 79.320271)scale(0.1 -0.1)">
       <use xlink:href="#DejaVuSans-49"/>
       <use x="63.623047" xlink:href="#DejaVuSans-46"/>
       <use x="95.410156" xlink:href="#DejaVuSans-48"/>
      </g>
     </g>
    </g>
    <g id="ytick_6">
     <g id="line2d_29">
      <path clip-path="url(#pb1a71c4285)" d="M 67.423125 31.762627 
L 625.423125 31.762627 
" style="fill:none;stroke:#b0b0b0;stroke-linecap:square;stroke-width:0.8;"/>
     </g>
     <g id="line2d_30">
      <g>
       <use style="stroke:#000000;stroke-width:0.8;" x="67.423125" xlink:href="#m82c508296e" y="31.762627"/>
      </g>
     </g>
     <g id="text_16">
      <!-- 1.2 -->
      <g transform="translate(44.52 35.561846)scale(0.1 -0.1)">
       <use xlink:href="#DejaVuSans-49"/>
       <use x="63.623047" xlink:href="#DejaVuSans-46"/>
       <use x="95.410156" xlink:href="#DejaVuSans-50"/>
      </g>
     </g>
    </g>
    <g id="text_17">
     <!-- $\frac{\varphi(r)}{\frac{8}{3} \pi G \rho R_0 r_0 }$ -->
     <g transform="translate(26.24 171.745)rotate(-90)scale(0.17 -0.17)">
      <defs>
       <path d="M 46.390625 47.40625 
Q 43.21875 47.40625 41.796875 40.328125 
L 35.296875 6.84375 
Q 39.890625 6.84375 45.5625 11.921875 
Q 50.6875 16.453125 52.734375 27.34375 
Q 54.640625 37.5 51.5625 42.96875 
Q 49.03125 47.40625 46.390625 47.40625 
z
M 47.859375 55.078125 
Q 54.890625 55.078125 59.671875 48.640625 
Q 64.796875 41.75 62.203125 27.34375 
Q 59.8125 14.109375 51.421875 6.25 
Q 43.5 -1.171875 33.734375 -1.171875 
L 29.9375 -20.796875 
L 21 -20.796875 
L 24.8125 -1.21875 
Q 15.046875 -1.21875 10.015625 6.25 
Q 4.828125 13.875 7.421875 27.296875 
Q 10.109375 41.265625 18.21875 48.390625 
Q 24.3125 53.71875 32.5625 55.078125 
L 31 47.125 
Q 27.59375 46 24.03125 42.1875 
Q 18.65625 36.578125 16.890625 27.296875 
Q 15.046875 17.4375 18.0625 11.8125 
Q 20.84375 6.78125 26.375 6.78125 
L 32.859375 40.328125 
Q 35.75 55.078125 47.859375 55.078125 
z
" id="DejaVuSans-Oblique-966"/>
       <path d="M 31 75.875 
Q 24.46875 64.65625 21.28125 53.65625 
Q 18.109375 42.671875 18.109375 31.390625 
Q 18.109375 20.125 21.3125 9.0625 
Q 24.515625 -2 31 -13.1875 
L 23.1875 -13.1875 
Q 15.875 -1.703125 12.234375 9.375 
Q 8.59375 20.453125 8.59375 31.390625 
Q 8.59375 42.28125 12.203125 53.3125 
Q 15.828125 64.359375 23.1875 75.875 
z
" id="DejaVuSans-40"/>
       <path d="M 8.015625 75.875 
L 15.828125 75.875 
Q 23.140625 64.359375 26.78125 53.3125 
Q 30.421875 42.28125 30.421875 31.390625 
Q 30.421875 20.453125 26.78125 9.375 
Q 23.140625 -1.703125 15.828125 -13.1875 
L 8.015625 -13.1875 
Q 14.5 -2 17.703125 9.0625 
Q 20.90625 20.125 20.90625 31.390625 
Q 20.90625 42.671875 17.703125 53.65625 
Q 14.5 64.65625 8.015625 75.875 
z
" id="DejaVuSans-41"/>
       <path d="M 40.578125 39.3125 
Q 47.65625 37.796875 51.625 33 
Q 55.609375 28.21875 55.609375 21.1875 
Q 55.609375 10.40625 48.1875 4.484375 
Q 40.765625 -1.421875 27.09375 -1.421875 
Q 22.515625 -1.421875 17.65625 -0.515625 
Q 12.796875 0.390625 7.625 2.203125 
L 7.625 11.71875 
Q 11.71875 9.328125 16.59375 8.109375 
Q 21.484375 6.890625 26.8125 6.890625 
Q 36.078125 6.890625 40.9375 10.546875 
Q 45.796875 14.203125 45.796875 21.1875 
Q 45.796875 27.640625 41.28125 31.265625 
Q 36.765625 34.90625 28.71875 34.90625 
L 20.21875 34.90625 
L 20.21875 43.015625 
L 29.109375 43.015625 
Q 36.375 43.015625 40.234375 45.921875 
Q 44.09375 48.828125 44.09375 54.296875 
Q 44.09375 59.90625 40.109375 62.90625 
Q 36.140625 65.921875 28.71875 65.921875 
Q 24.65625 65.921875 20.015625 65.03125 
Q 15.375 64.15625 9.8125 62.3125 
L 9.8125 71.09375 
Q 15.4375 72.65625 20.34375 73.4375 
Q 25.25 74.21875 29.59375 74.21875 
Q 40.828125 74.21875 47.359375 69.109375 
Q 53.90625 64.015625 53.90625 55.328125 
Q 53.90625 49.265625 50.4375 45.09375 
Q 46.96875 40.921875 40.578125 39.3125 
z
" id="DejaVuSans-51"/>
       <path d="M 9.125 54.6875 
L 61.53125 54.6875 
L 59.765625 45.703125 
L 52.875 45.703125 
L 46.34375 12.109375 
Q 45.65625 8.59375 46.578125 7.03125 
Q 47.46875 5.515625 50.140625 5.515625 
Q 50.875 5.515625 51.953125 5.671875 
Q 53.078125 5.765625 53.421875 5.8125 
L 52.15625 -0.6875 
Q 50.34375 -1.3125 48.484375 -1.609375 
Q 46.578125 -1.90625 44.78125 -1.90625 
Q 38.921875 -1.90625 37.3125 1.265625 
Q 35.6875 4.5 37.359375 13.09375 
L 43.703125 45.703125 
L 23.53125 45.703125 
L 14.65625 0 
L 5.46875 0 
L 14.359375 45.703125 
L 7.375 45.703125 
z
" id="DejaVuSans-Oblique-960"/>
       <path d="M 54.59375 10.890625 
L 58.40625 29.984375 
L 42.1875 29.984375 
L 43.703125 38.09375 
L 69.578125 38.09375 
L 63.28125 6 
Q 56.78125 2.4375 49.109375 0.5 
Q 41.453125 -1.421875 33.6875 -1.421875 
Q 19.96875 -1.421875 12.234375 6.1875 
Q 4.5 13.8125 4.5 27.390625 
Q 4.5 38.671875 9.203125 48.84375 
Q 13.921875 59.03125 22.21875 65.828125 
Q 27.4375 70.0625 33.640625 72.140625 
Q 39.84375 74.21875 47.40625 74.21875 
Q 54.25 74.21875 60.515625 72.484375 
Q 66.796875 70.75 72.515625 67.28125 
L 70.515625 56.78125 
Q 66.109375 61.375 60.203125 63.796875 
Q 54.296875 66.21875 47.609375 66.21875 
Q 39.84375 66.21875 33.9375 63.25 
Q 28.03125 60.296875 23.390625 54.109375 
Q 19.4375 48.828125 17.15625 41.671875 
Q 14.890625 34.515625 14.890625 27.09375 
Q 14.890625 16.890625 20.109375 11.734375 
Q 25.34375 6.59375 35.6875 6.59375 
Q 40.875 6.59375 45.703125 7.6875 
Q 50.53125 8.796875 54.59375 10.890625 
z
" id="DejaVuSans-Oblique-71"/>
       <path d="M 18.796875 44.921875 
Q 22.703125 49.90625 30.953125 54.296875 
Q 34.1875 56 43.0625 56 
Q 53.03125 56 57.71875 48.09375 
Q 62.40625 40.1875 59.90625 27.296875 
Q 57.375 14.40625 49.609375 6.484375 
Q 41.84375 -1.421875 31.890625 -1.421875 
Q 25.875 -1.421875 22.015625 0.984375 
Q 18.171875 3.328125 16.3125 8.203125 
L 10.640625 -20.796875 
L 1.609375 -20.796875 
L 10.890625 26.8125 
Q 13.09375 38.09375 18.796875 44.921875 
z
M 50.59375 27.296875 
Q 52.484375 37.203125 49.515625 42.875 
Q 46.53125 48.484375 39.40625 48.484375 
Q 32.28125 48.484375 27.09375 42.875 
Q 21.921875 37.203125 20.015625 27.296875 
Q 18.0625 17.390625 21.046875 11.71875 
Q 24.03125 6.109375 31.15625 6.109375 
Q 38.28125 6.109375 43.453125 11.71875 
Q 48.640625 17.390625 50.59375 27.296875 
z
" id="DejaVuSans-Oblique-961"/>
      </defs>
      <use transform="translate(97 58.8875)scale(0.7)" xlink:href="#DejaVuSans-Oblique-966"/>
      <use transform="translate(143.176758 58.8875)scale(0.7)" xlink:href="#DejaVuSans-40"/>
      <use transform="translate(170.486328 58.8875)scale(0.7)" xlink:href="#DejaVuSans-Oblique-114"/>
      <use transform="translate(199.265625 58.8875)scale(0.7)" xlink:href="#DejaVuSans-41"/>
      <use transform="translate(0 -23.2875)scale(0.49)" xlink:href="#DejaVuSans-56"/>
      <use transform="translate(0 -82.226406)scale(0.49)" xlink:href="#DejaVuSans-51"/>
      <use transform="translate(39.925293 -54.642031)scale(0.7)" xlink:href="#DejaVuSans-Oblique-960"/>
      <use transform="translate(82.068848 -54.642031)scale(0.7)" xlink:href="#DejaVuSans-Oblique-71"/>
      <use transform="translate(136.312012 -54.642031)scale(0.7)" xlink:href="#DejaVuSans-Oblique-961"/>
      <use transform="translate(180.745605 -54.642031)scale(0.7)" xlink:href="#DejaVuSans-Oblique-82"/>
      <use transform="translate(229.383301 -66.126406)scale(0.49)" xlink:href="#DejaVuSans-48"/>
      <use transform="translate(262.472656 -54.642031)scale(0.7)" xlink:href="#DejaVuSans-Oblique-114"/>
      <use transform="translate(291.251953 -66.126406)scale(0.49)" xlink:href="#DejaVuSans-48"/>
      <path d="M 0 19.329688 
L 0 25.579688 
L 324.341309 25.579688 
L 324.341309 19.329688 
L 0 19.329688 
z
"/>
      <path d="M 0 -41.484219 
L 0 -37.109219 
L 31.175293 -37.109219 
L 31.175293 -41.484219 
L 0 -41.484219 
z
"/>
     </g>
    </g>
   </g>
   <g id="line2d_31">
    <path clip-path="url(#pb1a71c4285)" d="M 600.059489 266.645455 
L 574.439654 264.930443 
L 551.381803 263.173062 
L 530.885935 261.400995 
L 512.952051 259.651397 
L 495.018166 257.673166 
L 479.646265 255.753473 
L 466.836348 253.959603 
L 454.026431 251.949494 
L 443.778497 250.151945 
L 433.530563 248.148366 
L 423.282629 245.891111 
L 415.596679 243.992559 
L 407.910728 241.875601 
L 400.224778 239.48696 
L 395.100811 237.70731 
L 389.976844 235.742702 
L 384.852877 233.551208 
L 379.72891 231.074293 
L 374.604943 228.226535 
L 372.04296 226.62503 
L 366.918993 223.118899 
L 364.357009 221.513613 
L 361.795026 220.060879 
L 359.233042 218.76162 
L 356.671059 217.616787 
L 354.109075 216.62736 
L 351.547092 215.794351 
L 348.985108 215.1188 
L 346.423125 214.601784 
L 343.861142 214.244411 
L 341.299158 214.047824 
L 338.737175 214.013206 
L 336.175191 214.141776 
L 333.613208 214.434794 
L 331.051224 214.89356 
L 328.489241 215.519422 
L 325.927257 216.313769 
L 323.365274 217.278041 
L 320.80329 218.413725 
L 313.11734 222.242127 
L 307.993373 224.329696 
L 302.869406 226.101639 
L 297.745439 227.633147 
L 292.621472 228.975508 
L 284.935522 230.711551 
L 277.249571 232.187873 
L 269.563621 233.461902 
L 259.315687 234.913778 
L 249.067753 236.142895 
L 236.257836 237.434258 
L 223.447918 238.509585 
L 208.076018 239.573387 
L 190.142133 240.563966 
L 172.208249 241.33533 
L 151.712381 241.994129 
L 128.65453 242.492519 
L 105.596679 242.76293 
L 92.786761 242.82088 
L 92.786761 242.82088 
" style="fill:none;stroke:#1f77b4;stroke-linecap:square;stroke-width:1.5;"/>
    <defs>
     <path d="M 0 1.5 
C 0.397805 1.5 0.77937 1.341951 1.06066 1.06066 
C 1.341951 0.77937 1.5 0.397805 1.5 0 
C 1.5 -0.397805 1.341951 -0.77937 1.06066 -1.06066 
C 0.77937 -1.341951 0.397805 -1.5 0 -1.5 
C -0.397805 -1.5 -0.77937 -1.341951 -1.06066 -1.06066 
C -1.341951 -0.77937 -1.5 -0.397805 -1.5 0 
C -1.5 0.397805 -1.341951 0.77937 -1.06066 1.06066 
C -0.77937 1.341951 -0.397805 1.5 0 1.5 
z
" id="m1157dce619" style="stroke:#1f77b4;"/>
    </defs>
    <g clip-path="url(#pb1a71c4285)">
     <use style="fill:#1f77b4;stroke:#1f77b4;" x="600.059489" xlink:href="#m1157dce619" y="266.645455"/>
     <use style="fill:#1f77b4;stroke:#1f77b4;" x="597.497505" xlink:href="#m1157dce619" y="266.483797"/>
     <use style="fill:#1f77b4;stroke:#1f77b4;" x="594.935522" xlink:href="#m1157dce619" y="266.320074"/>
     <use style="fill:#1f77b4;stroke:#1f77b4;" x="592.373538" xlink:href="#m1157dce619" y="266.154242"/>
     <use style="fill:#1f77b4;stroke:#1f77b4;" x="589.811555" xlink:href="#m1157dce619" y="265.986256"/>
     <use style="fill:#1f77b4;stroke:#1f77b4;" x="587.249571" xlink:href="#m1157dce619" y="265.816071"/>
     <use style="fill:#1f77b4;stroke:#1f77b4;" x="584.687588" xlink:href="#m1157dce619" y="265.643638"/>
     <use style="fill:#1f77b4;stroke:#1f77b4;" x="582.125604" xlink:href="#m1157dce619" y="265.468911"/>
     <use style="fill:#1f77b4;stroke:#1f77b4;" x="579.563621" xlink:href="#m1157dce619" y="265.291837"/>
     <use style="fill:#1f77b4;stroke:#1f77b4;" x="577.001637" xlink:href="#m1157dce619" y="265.112366"/>
     <use style="fill:#1f77b4;stroke:#1f77b4;" x="574.439654" xlink:href="#m1157dce619" y="264.930443"/>
     <use style="fill:#1f77b4;stroke:#1f77b4;" x="571.87767" xlink:href="#m1157dce619" y="264.746013"/>
     <use style="fill:#1f77b4;stroke:#1f77b4;" x="569.315687" xlink:href="#m1157dce619" y="264.55902"/>
     <use style="fill:#1f77b4;stroke:#1f77b4;" x="566.753704" xlink:href="#m1157dce619" y="264.369404"/>
     <use style="fill:#1f77b4;stroke:#1f77b4;" x="564.19172" xlink:href="#m1157dce619" y="264.177104"/>
     <use style="fill:#1f77b4;stroke:#1f77b4;" x="561.629737" xlink:href="#m1157dce619" y="263.982057"/>
     <use style="fill:#1f77b4;stroke:#1f77b4;" x="559.067753" xlink:href="#m1157dce619" y="263.784198"/>
     <use style="fill:#1f77b4;stroke:#1f77b4;" x="556.50577" xlink:href="#m1157dce619" y="263.583459"/>
     <use style="fill:#1f77b4;stroke:#1f77b4;" x="553.943786" xlink:href="#m1157dce619" y="263.379771"/>
     <use style="fill:#1f77b4;stroke:#1f77b4;" x="551.381803" xlink:href="#m1157dce619" y="263.173062"/>
     <use style="fill:#1f77b4;stroke:#1f77b4;" x="548.819819" xlink:href="#m1157dce619" y="262.963255"/>
     <use style="fill:#1f77b4;stroke:#1f77b4;" x="546.257836" xlink:href="#m1157dce619" y="262.750274"/>
     <use style="fill:#1f77b4;stroke:#1f77b4;" x="543.695852" xlink:href="#m1157dce619" y="262.534038"/>
     <use style="fill:#1f77b4;stroke:#1f77b4;" x="541.133869" xlink:href="#m1157dce619" y="262.314463"/>
     <use style="fill:#1f77b4;stroke:#1f77b4;" x="538.571885" xlink:href="#m1157dce619" y="262.091463"/>
     <use style="fill:#1f77b4;stroke:#1f77b4;" x="536.009902" xlink:href="#m1157dce619" y="261.864948"/>
     <use style="fill:#1f77b4;stroke:#1f77b4;" x="533.447918" xlink:href="#m1157dce619" y="261.634825"/>
     <use style="fill:#1f77b4;stroke:#1f77b4;" x="530.885935" xlink:href="#m1157dce619" y="261.400995"/>
     <use style="fill:#1f77b4;stroke:#1f77b4;" x="528.323951" xlink:href="#m1157dce619" y="261.163359"/>
     <use style="fill:#1f77b4;stroke:#1f77b4;" x="525.761968" xlink:href="#m1157dce619" y="260.921811"/>
     <use style="fill:#1f77b4;stroke:#1f77b4;" x="523.199985" xlink:href="#m1157dce619" y="260.676241"/>
     <use style="fill:#1f77b4;stroke:#1f77b4;" x="520.638001" xlink:href="#m1157dce619" y="260.426536"/>
     <use style="fill:#1f77b4;stroke:#1f77b4;" x="518.076018" xlink:href="#m1157dce619" y="260.172578"/>
     <use style="fill:#1f77b4;stroke:#1f77b4;" x="515.514034" xlink:href="#m1157dce619" y="259.914241"/>
     <use style="fill:#1f77b4;stroke:#1f77b4;" x="512.952051" xlink:href="#m1157dce619" y="259.651397"/>
     <use style="fill:#1f77b4;stroke:#1f77b4;" x="510.390067" xlink:href="#m1157dce619" y="259.383912"/>
     <use style="fill:#1f77b4;stroke:#1f77b4;" x="507.828084" xlink:href="#m1157dce619" y="259.111644"/>
     <use style="fill:#1f77b4;stroke:#1f77b4;" x="505.2661" xlink:href="#m1157dce619" y="258.834446"/>
     <use style="fill:#1f77b4;stroke:#1f77b4;" x="502.704117" xlink:href="#m1157dce619" y="258.552165"/>
     <use style="fill:#1f77b4;stroke:#1f77b4;" x="500.142133" xlink:href="#m1157dce619" y="258.264638"/>
     <use style="fill:#1f77b4;stroke:#1f77b4;" x="497.58015" xlink:href="#m1157dce619" y="257.971697"/>
     <use style="fill:#1f77b4;stroke:#1f77b4;" x="495.018166" xlink:href="#m1157dce619" y="257.673166"/>
     <use style="fill:#1f77b4;stroke:#1f77b4;" x="492.456183" xlink:href="#m1157dce619" y="257.368857"/>
     <use style="fill:#1f77b4;stroke:#1f77b4;" x="489.894199" xlink:href="#m1157dce619" y="257.058577"/>
     <use style="fill:#1f77b4;stroke:#1f77b4;" x="487.332216" xlink:href="#m1157dce619" y="256.74212"/>
     <use style="fill:#1f77b4;stroke:#1f77b4;" x="484.770232" xlink:href="#m1157dce619" y="256.41927"/>
     <use style="fill:#1f77b4;stroke:#1f77b4;" x="482.208249" xlink:href="#m1157dce619" y="256.089801"/>
     <use style="fill:#1f77b4;stroke:#1f77b4;" x="479.646265" xlink:href="#m1157dce619" y="255.753473"/>
     <use style="fill:#1f77b4;stroke:#1f77b4;" x="477.084282" xlink:href="#m1157dce619" y="255.410034"/>
     <use style="fill:#1f77b4;stroke:#1f77b4;" x="474.522299" xlink:href="#m1157dce619" y="255.059217"/>
     <use style="fill:#1f77b4;stroke:#1f77b4;" x="471.960315" xlink:href="#m1157dce619" y="254.700741"/>
     <use style="fill:#1f77b4;stroke:#1f77b4;" x="469.398332" xlink:href="#m1157dce619" y="254.334308"/>
     <use style="fill:#1f77b4;stroke:#1f77b4;" x="466.836348" xlink:href="#m1157dce619" y="253.959603"/>
     <use style="fill:#1f77b4;stroke:#1f77b4;" x="464.274365" xlink:href="#m1157dce619" y="253.576289"/>
     <use style="fill:#1f77b4;stroke:#1f77b4;" x="461.712381" xlink:href="#m1157dce619" y="253.184012"/>
     <use style="fill:#1f77b4;stroke:#1f77b4;" x="459.150398" xlink:href="#m1157dce619" y="252.782393"/>
     <use style="fill:#1f77b4;stroke:#1f77b4;" x="456.588414" xlink:href="#m1157dce619" y="252.371031"/>
     <use style="fill:#1f77b4;stroke:#1f77b4;" x="454.026431" xlink:href="#m1157dce619" y="251.949494"/>
     <use style="fill:#1f77b4;stroke:#1f77b4;" x="451.464447" xlink:href="#m1157dce619" y="251.517326"/>
     <use style="fill:#1f77b4;stroke:#1f77b4;" x="448.902464" xlink:href="#m1157dce619" y="251.074035"/>
     <use style="fill:#1f77b4;stroke:#1f77b4;" x="446.34048" xlink:href="#m1157dce619" y="250.619096"/>
     <use style="fill:#1f77b4;stroke:#1f77b4;" x="443.778497" xlink:href="#m1157dce619" y="250.151945"/>
     <use style="fill:#1f77b4;stroke:#1f77b4;" x="441.216513" xlink:href="#m1157dce619" y="249.671976"/>
     <use style="fill:#1f77b4;stroke:#1f77b4;" x="438.65453" xlink:href="#m1157dce619" y="249.178536"/>
     <use style="fill:#1f77b4;stroke:#1f77b4;" x="436.092546" xlink:href="#m1157dce619" y="248.67092"/>
     <use style="fill:#1f77b4;stroke:#1f77b4;" x="433.530563" xlink:href="#m1157dce619" y="248.148366"/>
     <use style="fill:#1f77b4;stroke:#1f77b4;" x="430.96858" xlink:href="#m1157dce619" y="247.610047"/>
     <use style="fill:#1f77b4;stroke:#1f77b4;" x="428.406596" xlink:href="#m1157dce619" y="247.055065"/>
     <use style="fill:#1f77b4;stroke:#1f77b4;" x="425.844613" xlink:href="#m1157dce619" y="246.482443"/>
     <use style="fill:#1f77b4;stroke:#1f77b4;" x="423.282629" xlink:href="#m1157dce619" y="245.891111"/>
     <use style="fill:#1f77b4;stroke:#1f77b4;" x="420.720646" xlink:href="#m1157dce619" y="245.279899"/>
     <use style="fill:#1f77b4;stroke:#1f77b4;" x="418.158662" xlink:href="#m1157dce619" y="244.64752"/>
     <use style="fill:#1f77b4;stroke:#1f77b4;" x="415.596679" xlink:href="#m1157dce619" y="243.992559"/>
     <use style="fill:#1f77b4;stroke:#1f77b4;" x="413.034695" xlink:href="#m1157dce619" y="243.313445"/>
     <use style="fill:#1f77b4;stroke:#1f77b4;" x="410.472712" xlink:href="#m1157dce619" y="242.608439"/>
     <use style="fill:#1f77b4;stroke:#1f77b4;" x="407.910728" xlink:href="#m1157dce619" y="241.875601"/>
     <use style="fill:#1f77b4;stroke:#1f77b4;" x="405.348745" xlink:href="#m1157dce619" y="241.112756"/>
     <use style="fill:#1f77b4;stroke:#1f77b4;" x="402.786761" xlink:href="#m1157dce619" y="240.317464"/>
     <use style="fill:#1f77b4;stroke:#1f77b4;" x="400.224778" xlink:href="#m1157dce619" y="239.48696"/>
     <use style="fill:#1f77b4;stroke:#1f77b4;" x="397.662794" xlink:href="#m1157dce619" y="238.618105"/>
     <use style="fill:#1f77b4;stroke:#1f77b4;" x="395.100811" xlink:href="#m1157dce619" y="237.70731"/>
     <use style="fill:#1f77b4;stroke:#1f77b4;" x="392.538827" xlink:href="#m1157dce619" y="236.75044"/>
     <use style="fill:#1f77b4;stroke:#1f77b4;" x="389.976844" xlink:href="#m1157dce619" y="235.742702"/>
     <use style="fill:#1f77b4;stroke:#1f77b4;" x="387.414861" xlink:href="#m1157dce619" y="234.678494"/>
     <use style="fill:#1f77b4;stroke:#1f77b4;" x="384.852877" xlink:href="#m1157dce619" y="233.551208"/>
     <use style="fill:#1f77b4;stroke:#1f77b4;" x="382.290894" xlink:href="#m1157dce619" y="232.35297"/>
     <use style="fill:#1f77b4;stroke:#1f77b4;" x="379.72891" xlink:href="#m1157dce619" y="231.074293"/>
     <use style="fill:#1f77b4;stroke:#1f77b4;" x="377.166927" xlink:href="#m1157dce619" y="229.703597"/>
     <use style="fill:#1f77b4;stroke:#1f77b4;" x="374.604943" xlink:href="#m1157dce619" y="228.226535"/>
     <use style="fill:#1f77b4;stroke:#1f77b4;" x="372.04296" xlink:href="#m1157dce619" y="226.62503"/>
     <use style="fill:#1f77b4;stroke:#1f77b4;" x="369.480976" xlink:href="#m1157dce619" y="224.875839"/>
     <use style="fill:#1f77b4;stroke:#1f77b4;" x="366.918993" xlink:href="#m1157dce619" y="223.118899"/>
     <use style="fill:#1f77b4;stroke:#1f77b4;" x="364.357009" xlink:href="#m1157dce619" y="221.513613"/>
     <use style="fill:#1f77b4;stroke:#1f77b4;" x="361.795026" xlink:href="#m1157dce619" y="220.060879"/>
     <use style="fill:#1f77b4;stroke:#1f77b4;" x="359.233042" xlink:href="#m1157dce619" y="218.76162"/>
     <use style="fill:#1f77b4;stroke:#1f77b4;" x="356.671059" xlink:href="#m1157dce619" y="217.616787"/>
     <use style="fill:#1f77b4;stroke:#1f77b4;" x="354.109075" xlink:href="#m1157dce619" y="216.62736"/>
     <use style="fill:#1f77b4;stroke:#1f77b4;" x="351.547092" xlink:href="#m1157dce619" y="215.794351"/>
     <use style="fill:#1f77b4;stroke:#1f77b4;" x="348.985108" xlink:href="#m1157dce619" y="215.1188"/>
     <use style="fill:#1f77b4;stroke:#1f77b4;" x="346.423125" xlink:href="#m1157dce619" y="214.601784"/>
     <use style="fill:#1f77b4;stroke:#1f77b4;" x="343.861142" xlink:href="#m1157dce619" y="214.244411"/>
     <use style="fill:#1f77b4;stroke:#1f77b4;" x="341.299158" xlink:href="#m1157dce619" y="214.047824"/>
     <use style="fill:#1f77b4;stroke:#1f77b4;" x="338.737175" xlink:href="#m1157dce619" y="214.013206"/>
     <use style="fill:#1f77b4;stroke:#1f77b4;" x="336.175191" xlink:href="#m1157dce619" y="214.141776"/>
     <use style="fill:#1f77b4;stroke:#1f77b4;" x="333.613208" xlink:href="#m1157dce619" y="214.434794"/>
     <use style="fill:#1f77b4;stroke:#1f77b4;" x="331.051224" xlink:href="#m1157dce619" y="214.89356"/>
     <use style="fill:#1f77b4;stroke:#1f77b4;" x="328.489241" xlink:href="#m1157dce619" y="215.519422"/>
     <use style="fill:#1f77b4;stroke:#1f77b4;" x="325.927257" xlink:href="#m1157dce619" y="216.313769"/>
     <use style="fill:#1f77b4;stroke:#1f77b4;" x="323.365274" xlink:href="#m1157dce619" y="217.278041"/>
     <use style="fill:#1f77b4;stroke:#1f77b4;" x="320.80329" xlink:href="#m1157dce619" y="218.413725"/>
     <use style="fill:#1f77b4;stroke:#1f77b4;" x="318.241307" xlink:href="#m1157dce619" y="219.722363"/>
     <use style="fill:#1f77b4;stroke:#1f77b4;" x="315.679323" xlink:href="#m1157dce619" y="221.045959"/>
     <use style="fill:#1f77b4;stroke:#1f77b4;" x="313.11734" xlink:href="#m1157dce619" y="222.242127"/>
     <use style="fill:#1f77b4;stroke:#1f77b4;" x="310.555356" xlink:href="#m1157dce619" y="223.331386"/>
     <use style="fill:#1f77b4;stroke:#1f77b4;" x="307.993373" xlink:href="#m1157dce619" y="224.329696"/>
     <use style="fill:#1f77b4;stroke:#1f77b4;" x="305.431389" xlink:href="#m1157dce619" y="225.249713"/>
     <use style="fill:#1f77b4;stroke:#1f77b4;" x="302.869406" xlink:href="#m1157dce619" y="226.101639"/>
     <use style="fill:#1f77b4;stroke:#1f77b4;" x="300.307423" xlink:href="#m1157dce619" y="226.893815"/>
     <use style="fill:#1f77b4;stroke:#1f77b4;" x="297.745439" xlink:href="#m1157dce619" y="227.633147"/>
     <use style="fill:#1f77b4;stroke:#1f77b4;" x="295.183456" xlink:href="#m1157dce619" y="228.325416"/>
     <use style="fill:#1f77b4;stroke:#1f77b4;" x="292.621472" xlink:href="#m1157dce619" y="228.975508"/>
     <use style="fill:#1f77b4;stroke:#1f77b4;" x="290.059489" xlink:href="#m1157dce619" y="229.587587"/>
     <use style="fill:#1f77b4;stroke:#1f77b4;" x="287.497505" xlink:href="#m1157dce619" y="230.165235"/>
     <use style="fill:#1f77b4;stroke:#1f77b4;" x="284.935522" xlink:href="#m1157dce619" y="230.711551"/>
     <use style="fill:#1f77b4;stroke:#1f77b4;" x="282.373538" xlink:href="#m1157dce619" y="231.229232"/>
     <use style="fill:#1f77b4;stroke:#1f77b4;" x="279.811555" xlink:href="#m1157dce619" y="231.720645"/>
     <use style="fill:#1f77b4;stroke:#1f77b4;" x="277.249571" xlink:href="#m1157dce619" y="232.187873"/>
     <use style="fill:#1f77b4;stroke:#1f77b4;" x="274.687588" xlink:href="#m1157dce619" y="232.632761"/>
     <use style="fill:#1f77b4;stroke:#1f77b4;" x="272.125604" xlink:href="#m1157dce619" y="233.056948"/>
     <use style="fill:#1f77b4;stroke:#1f77b4;" x="269.563621" xlink:href="#m1157dce619" y="233.461902"/>
     <use style="fill:#1f77b4;stroke:#1f77b4;" x="267.001637" xlink:href="#m1157dce619" y="233.848935"/>
     <use style="fill:#1f77b4;stroke:#1f77b4;" x="264.439654" xlink:href="#m1157dce619" y="234.21923"/>
     <use style="fill:#1f77b4;stroke:#1f77b4;" x="261.87767" xlink:href="#m1157dce619" y="234.573855"/>
     <use style="fill:#1f77b4;stroke:#1f77b4;" x="259.315687" xlink:href="#m1157dce619" y="234.913778"/>
     <use style="fill:#1f77b4;stroke:#1f77b4;" x="256.753704" xlink:href="#m1157dce619" y="235.239876"/>
     <use style="fill:#1f77b4;stroke:#1f77b4;" x="254.19172" xlink:href="#m1157dce619" y="235.552951"/>
     <use style="fill:#1f77b4;stroke:#1f77b4;" x="251.629737" xlink:href="#m1157dce619" y="235.853734"/>
     <use style="fill:#1f77b4;stroke:#1f77b4;" x="249.067753" xlink:href="#m1157dce619" y="236.142895"/>
     <use style="fill:#1f77b4;stroke:#1f77b4;" x="246.50577" xlink:href="#m1157dce619" y="236.421049"/>
     <use style="fill:#1f77b4;stroke:#1f77b4;" x="243.943786" xlink:href="#m1157dce619" y="236.68876"/>
     <use style="fill:#1f77b4;stroke:#1f77b4;" x="241.381803" xlink:href="#m1157dce619" y="236.946551"/>
     <use style="fill:#1f77b4;stroke:#1f77b4;" x="238.819819" xlink:href="#m1157dce619" y="237.194902"/>
     <use style="fill:#1f77b4;stroke:#1f77b4;" x="236.257836" xlink:href="#m1157dce619" y="237.434258"/>
     <use style="fill:#1f77b4;stroke:#1f77b4;" x="233.695852" xlink:href="#m1157dce619" y="237.665033"/>
     <use style="fill:#1f77b4;stroke:#1f77b4;" x="231.133869" xlink:href="#m1157dce619" y="237.887609"/>
     <use style="fill:#1f77b4;stroke:#1f77b4;" x="228.571885" xlink:href="#m1157dce619" y="238.102342"/>
     <use style="fill:#1f77b4;stroke:#1f77b4;" x="226.009902" xlink:href="#m1157dce619" y="238.309565"/>
     <use style="fill:#1f77b4;stroke:#1f77b4;" x="223.447918" xlink:href="#m1157dce619" y="238.509585"/>
     <use style="fill:#1f77b4;stroke:#1f77b4;" x="220.885935" xlink:href="#m1157dce619" y="238.702692"/>
     <use style="fill:#1f77b4;stroke:#1f77b4;" x="218.323951" xlink:href="#m1157dce619" y="238.889155"/>
     <use style="fill:#1f77b4;stroke:#1f77b4;" x="215.761968" xlink:href="#m1157dce619" y="239.069227"/>
     <use style="fill:#1f77b4;stroke:#1f77b4;" x="213.199985" xlink:href="#m1157dce619" y="239.243144"/>
     <use style="fill:#1f77b4;stroke:#1f77b4;" x="210.638001" xlink:href="#m1157dce619" y="239.411128"/>
     <use style="fill:#1f77b4;stroke:#1f77b4;" x="208.076018" xlink:href="#m1157dce619" y="239.573387"/>
     <use style="fill:#1f77b4;stroke:#1f77b4;" x="205.514034" xlink:href="#m1157dce619" y="239.730117"/>
     <use style="fill:#1f77b4;stroke:#1f77b4;" x="202.952051" xlink:href="#m1157dce619" y="239.881502"/>
     <use style="fill:#1f77b4;stroke:#1f77b4;" x="200.390067" xlink:href="#m1157dce619" y="240.027715"/>
     <use style="fill:#1f77b4;stroke:#1f77b4;" x="197.828084" xlink:href="#m1157dce619" y="240.168918"/>
     <use style="fill:#1f77b4;stroke:#1f77b4;" x="195.2661" xlink:href="#m1157dce619" y="240.305266"/>
     <use style="fill:#1f77b4;stroke:#1f77b4;" x="192.704117" xlink:href="#m1157dce619" y="240.436903"/>
     <use style="fill:#1f77b4;stroke:#1f77b4;" x="190.142133" xlink:href="#m1157dce619" y="240.563966"/>
     <use style="fill:#1f77b4;stroke:#1f77b4;" x="187.58015" xlink:href="#m1157dce619" y="240.686584"/>
     <use style="fill:#1f77b4;stroke:#1f77b4;" x="185.018166" xlink:href="#m1157dce619" y="240.804879"/>
     <use style="fill:#1f77b4;stroke:#1f77b4;" x="182.456183" xlink:href="#m1157dce619" y="240.918967"/>
     <use style="fill:#1f77b4;stroke:#1f77b4;" x="179.894199" xlink:href="#m1157dce619" y="241.028956"/>
     <use style="fill:#1f77b4;stroke:#1f77b4;" x="177.332216" xlink:href="#m1157dce619" y="241.134948"/>
     <use style="fill:#1f77b4;stroke:#1f77b4;" x="174.770232" xlink:href="#m1157dce619" y="241.237043"/>
     <use style="fill:#1f77b4;stroke:#1f77b4;" x="172.208249" xlink:href="#m1157dce619" y="241.33533"/>
     <use style="fill:#1f77b4;stroke:#1f77b4;" x="169.646265" xlink:href="#m1157dce619" y="241.429899"/>
     <use style="fill:#1f77b4;stroke:#1f77b4;" x="167.084282" xlink:href="#m1157dce619" y="241.52083"/>
     <use style="fill:#1f77b4;stroke:#1f77b4;" x="164.522299" xlink:href="#m1157dce619" y="241.608203"/>
     <use style="fill:#1f77b4;stroke:#1f77b4;" x="161.960315" xlink:href="#m1157dce619" y="241.692091"/>
     <use style="fill:#1f77b4;stroke:#1f77b4;" x="159.398332" xlink:href="#m1157dce619" y="241.772563"/>
     <use style="fill:#1f77b4;stroke:#1f77b4;" x="156.836348" xlink:href="#m1157dce619" y="241.849686"/>
     <use style="fill:#1f77b4;stroke:#1f77b4;" x="154.274365" xlink:href="#m1157dce619" y="241.923521"/>
     <use style="fill:#1f77b4;stroke:#1f77b4;" x="151.712381" xlink:href="#m1157dce619" y="241.994129"/>
     <use style="fill:#1f77b4;stroke:#1f77b4;" x="149.150398" xlink:href="#m1157dce619" y="242.061564"/>
     <use style="fill:#1f77b4;stroke:#1f77b4;" x="146.588414" xlink:href="#m1157dce619" y="242.125878"/>
     <use style="fill:#1f77b4;stroke:#1f77b4;" x="144.026431" xlink:href="#m1157dce619" y="242.187122"/>
     <use style="fill:#1f77b4;stroke:#1f77b4;" x="141.464447" xlink:href="#m1157dce619" y="242.245342"/>
     <use style="fill:#1f77b4;stroke:#1f77b4;" x="138.902464" xlink:href="#m1157dce619" y="242.300582"/>
     <use style="fill:#1f77b4;stroke:#1f77b4;" x="136.34048" xlink:href="#m1157dce619" y="242.352882"/>
     <use style="fill:#1f77b4;stroke:#1f77b4;" x="133.778497" xlink:href="#m1157dce619" y="242.402281"/>
     <use style="fill:#1f77b4;stroke:#1f77b4;" x="131.216513" xlink:href="#m1157dce619" y="242.448816"/>
     <use style="fill:#1f77b4;stroke:#1f77b4;" x="128.65453" xlink:href="#m1157dce619" y="242.492519"/>
     <use style="fill:#1f77b4;stroke:#1f77b4;" x="126.092546" xlink:href="#m1157dce619" y="242.533424"/>
     <use style="fill:#1f77b4;stroke:#1f77b4;" x="123.530563" xlink:href="#m1157dce619" y="242.571557"/>
     <use style="fill:#1f77b4;stroke:#1f77b4;" x="120.96858" xlink:href="#m1157dce619" y="242.606948"/>
     <use style="fill:#1f77b4;stroke:#1f77b4;" x="118.406596" xlink:href="#m1157dce619" y="242.639619"/>
     <use style="fill:#1f77b4;stroke:#1f77b4;" x="115.844613" xlink:href="#m1157dce619" y="242.669596"/>
     <use style="fill:#1f77b4;stroke:#1f77b4;" x="113.282629" xlink:href="#m1157dce619" y="242.696897"/>
     <use style="fill:#1f77b4;stroke:#1f77b4;" x="110.720646" xlink:href="#m1157dce619" y="242.721542"/>
     <use style="fill:#1f77b4;stroke:#1f77b4;" x="108.158662" xlink:href="#m1157dce619" y="242.743548"/>
     <use style="fill:#1f77b4;stroke:#1f77b4;" x="105.596679" xlink:href="#m1157dce619" y="242.76293"/>
     <use style="fill:#1f77b4;stroke:#1f77b4;" x="103.034695" xlink:href="#m1157dce619" y="242.779701"/>
     <use style="fill:#1f77b4;stroke:#1f77b4;" x="100.472712" xlink:href="#m1157dce619" y="242.793873"/>
     <use style="fill:#1f77b4;stroke:#1f77b4;" x="97.910728" xlink:href="#m1157dce619" y="242.805455"/>
     <use style="fill:#1f77b4;stroke:#1f77b4;" x="95.348745" xlink:href="#m1157dce619" y="242.814456"/>
     <use style="fill:#1f77b4;stroke:#1f77b4;" x="92.786761" xlink:href="#m1157dce619" y="242.82088"/>
    </g>
   </g>
   <g id="line2d_32">
    <path clip-path="url(#pb1a71c4285)" d="M 600.059489 238.944448 
L 594.935522 238.29241 
L 589.811555 237.623426 
L 584.687588 236.936769 
L 579.563621 236.231662 
L 574.439654 235.507283 
L 569.315687 234.762752 
L 564.19172 233.997134 
L 559.067753 233.209427 
L 553.943786 232.398559 
L 548.819819 231.563383 
L 543.695852 230.702666 
L 538.571885 229.815083 
L 533.447918 228.899204 
L 528.323951 227.953491 
L 523.199985 226.976274 
L 518.076018 225.965747 
L 512.952051 224.919947 
L 507.828084 223.836736 
L 502.704117 222.713779 
L 497.58015 221.548521 
L 492.456183 220.338156 
L 487.332216 219.079591 
L 482.208249 217.76941 
L 477.084282 216.403824 
L 471.960315 214.978612 
L 466.836348 213.489054 
L 461.712381 211.929849 
L 456.588414 210.295009 
L 451.464447 208.577742 
L 446.34048 206.770285 
L 441.216513 204.863722 
L 436.092546 202.847726 
L 430.96858 200.710247 
L 425.844613 198.437093 
L 420.720646 196.011388 
L 415.596679 193.412825 
L 410.472712 190.616658 
L 405.348745 187.592276 
L 400.224778 184.301157 
L 395.100811 180.693825 
L 389.976844 177.047154 
L 384.852877 173.67976 
L 379.72891 170.594101 
L 374.604943 167.792776 
L 369.480976 165.278534 
L 364.357009 163.05429 
L 359.233042 161.123133 
L 354.109075 159.48834 
L 348.985108 158.153397 
L 343.861142 157.122009 
L 338.737175 156.398122 
L 333.613208 155.985944 
L 328.489241 155.889966 
L 323.365274 156.114989 
L 318.241307 156.66615 
L 313.11734 157.548956 
L 307.993373 158.769317 
L 302.869406 160.333584 
L 297.745439 162.248598 
L 292.621472 164.521732 
L 287.497505 166.840288 
L 282.373538 168.917519 
L 277.249571 170.791851 
L 272.125604 172.493208 
L 267.001637 174.045326 
L 261.87767 175.467338 
L 256.753704 176.774879 
L 251.629737 177.980882 
L 246.50577 179.096153 
L 241.381803 180.129813 
L 236.257836 181.089619 
L 231.133869 181.982219 
L 226.009902 182.813349 
L 220.885935 183.587984 
L 215.761968 184.310466 
L 210.638001 184.984601 
L 205.514034 185.613738 
L 200.390067 186.200835 
L 195.2661 186.748514 
L 190.142133 187.259105 
L 185.018166 187.734686 
L 179.894199 188.177108 
L 174.770232 188.588029 
L 169.646265 188.968931 
L 164.522299 189.321141 
L 159.398332 189.645848 
L 154.274365 189.944113 
L 149.150398 190.216887 
L 144.026431 190.465017 
L 138.902464 190.689255 
L 133.778497 190.890266 
L 128.65453 191.068637 
L 123.530563 191.224877 
L 118.406596 191.359427 
L 113.282629 191.472662 
L 108.158662 191.564893 
L 103.034695 191.636371 
L 97.910728 191.68729 
L 92.786761 191.717787 
" style="fill:none;stroke:#ff7f0e;stroke-linecap:square;stroke-width:1.5;"/>
    <defs>
     <path d="M 0 1.5 
C 0.397805 1.5 0.77937 1.341951 1.06066 1.06066 
C 1.341951 0.77937 1.5 0.397805 1.5 0 
C 1.5 -0.397805 1.341951 -0.77937 1.06066 -1.06066 
C 0.77937 -1.341951 0.397805 -1.5 0 -1.5 
C -0.397805 -1.5 -0.77937 -1.341951 -1.06066 -1.06066 
C -1.341951 -0.77937 -1.5 -0.397805 -1.5 0 
C -1.5 0.397805 -1.341951 0.77937 -1.06066 1.06066 
C -0.77937 1.341951 -0.397805 1.5 0 1.5 
z
" id="m33e48a075a" style="stroke:#ff7f0e;"/>
    </defs>
    <g clip-path="url(#pb1a71c4285)">
     <use style="fill:#ff7f0e;stroke:#ff7f0e;" x="600.059489" xlink:href="#m33e48a075a" y="238.944448"/>
     <use style="fill:#ff7f0e;stroke:#ff7f0e;" x="594.935522" xlink:href="#m33e48a075a" y="238.29241"/>
     <use style="fill:#ff7f0e;stroke:#ff7f0e;" x="589.811555" xlink:href="#m33e48a075a" y="237.623426"/>
     <use style="fill:#ff7f0e;stroke:#ff7f0e;" x="584.687588" xlink:href="#m33e48a075a" y="236.936769"/>
     <use style="fill:#ff7f0e;stroke:#ff7f0e;" x="579.563621" xlink:href="#m33e48a075a" y="236.231662"/>
     <use style="fill:#ff7f0e;stroke:#ff7f0e;" x="574.439654" xlink:href="#m33e48a075a" y="235.507283"/>
     <use style="fill:#ff7f0e;stroke:#ff7f0e;" x="569.315687" xlink:href="#m33e48a075a" y="234.762752"/>
     <use style="fill:#ff7f0e;stroke:#ff7f0e;" x="564.19172" xlink:href="#m33e48a075a" y="233.997134"/>
     <use style="fill:#ff7f0e;stroke:#ff7f0e;" x="559.067753" xlink:href="#m33e48a075a" y="233.209427"/>
     <use style="fill:#ff7f0e;stroke:#ff7f0e;" x="553.943786" xlink:href="#m33e48a075a" y="232.398559"/>
     <use style="fill:#ff7f0e;stroke:#ff7f0e;" x="548.819819" xlink:href="#m33e48a075a" y="231.563383"/>
     <use style="fill:#ff7f0e;stroke:#ff7f0e;" x="543.695852" xlink:href="#m33e48a075a" y="230.702666"/>
     <use style="fill:#ff7f0e;stroke:#ff7f0e;" x="538.571885" xlink:href="#m33e48a075a" y="229.815083"/>
     <use style="fill:#ff7f0e;stroke:#ff7f0e;" x="533.447918" xlink:href="#m33e48a075a" y="228.899204"/>
     <use style="fill:#ff7f0e;stroke:#ff7f0e;" x="528.323951" xlink:href="#m33e48a075a" y="227.953491"/>
     <use style="fill:#ff7f0e;stroke:#ff7f0e;" x="523.199985" xlink:href="#m33e48a075a" y="226.976274"/>
     <use style="fill:#ff7f0e;stroke:#ff7f0e;" x="518.076018" xlink:href="#m33e48a075a" y="225.965747"/>
     <use style="fill:#ff7f0e;stroke:#ff7f0e;" x="512.952051" xlink:href="#m33e48a075a" y="224.919947"/>
     <use style="fill:#ff7f0e;stroke:#ff7f0e;" x="507.828084" xlink:href="#m33e48a075a" y="223.836736"/>
     <use style="fill:#ff7f0e;stroke:#ff7f0e;" x="502.704117" xlink:href="#m33e48a075a" y="222.713779"/>
     <use style="fill:#ff7f0e;stroke:#ff7f0e;" x="497.58015" xlink:href="#m33e48a075a" y="221.548521"/>
     <use style="fill:#ff7f0e;stroke:#ff7f0e;" x="492.456183" xlink:href="#m33e48a075a" y="220.338156"/>
     <use style="fill:#ff7f0e;stroke:#ff7f0e;" x="487.332216" xlink:href="#m33e48a075a" y="219.079591"/>
     <use style="fill:#ff7f0e;stroke:#ff7f0e;" x="482.208249" xlink:href="#m33e48a075a" y="217.76941"/>
     <use style="fill:#ff7f0e;stroke:#ff7f0e;" x="477.084282" xlink:href="#m33e48a075a" y="216.403824"/>
     <use style="fill:#ff7f0e;stroke:#ff7f0e;" x="471.960315" xlink:href="#m33e48a075a" y="214.978612"/>
     <use style="fill:#ff7f0e;stroke:#ff7f0e;" x="466.836348" xlink:href="#m33e48a075a" y="213.489054"/>
     <use style="fill:#ff7f0e;stroke:#ff7f0e;" x="461.712381" xlink:href="#m33e48a075a" y="211.929849"/>
     <use style="fill:#ff7f0e;stroke:#ff7f0e;" x="456.588414" xlink:href="#m33e48a075a" y="210.295009"/>
     <use style="fill:#ff7f0e;stroke:#ff7f0e;" x="451.464447" xlink:href="#m33e48a075a" y="208.577742"/>
     <use style="fill:#ff7f0e;stroke:#ff7f0e;" x="446.34048" xlink:href="#m33e48a075a" y="206.770285"/>
     <use style="fill:#ff7f0e;stroke:#ff7f0e;" x="441.216513" xlink:href="#m33e48a075a" y="204.863722"/>
     <use style="fill:#ff7f0e;stroke:#ff7f0e;" x="436.092546" xlink:href="#m33e48a075a" y="202.847726"/>
     <use style="fill:#ff7f0e;stroke:#ff7f0e;" x="430.96858" xlink:href="#m33e48a075a" y="200.710247"/>
     <use style="fill:#ff7f0e;stroke:#ff7f0e;" x="425.844613" xlink:href="#m33e48a075a" y="198.437093"/>
     <use style="fill:#ff7f0e;stroke:#ff7f0e;" x="420.720646" xlink:href="#m33e48a075a" y="196.011388"/>
     <use style="fill:#ff7f0e;stroke:#ff7f0e;" x="415.596679" xlink:href="#m33e48a075a" y="193.412825"/>
     <use style="fill:#ff7f0e;stroke:#ff7f0e;" x="410.472712" xlink:href="#m33e48a075a" y="190.616658"/>
     <use style="fill:#ff7f0e;stroke:#ff7f0e;" x="405.348745" xlink:href="#m33e48a075a" y="187.592276"/>
     <use style="fill:#ff7f0e;stroke:#ff7f0e;" x="400.224778" xlink:href="#m33e48a075a" y="184.301157"/>
     <use style="fill:#ff7f0e;stroke:#ff7f0e;" x="395.100811" xlink:href="#m33e48a075a" y="180.693825"/>
     <use style="fill:#ff7f0e;stroke:#ff7f0e;" x="389.976844" xlink:href="#m33e48a075a" y="177.047154"/>
     <use style="fill:#ff7f0e;stroke:#ff7f0e;" x="384.852877" xlink:href="#m33e48a075a" y="173.67976"/>
     <use style="fill:#ff7f0e;stroke:#ff7f0e;" x="379.72891" xlink:href="#m33e48a075a" y="170.594101"/>
     <use style="fill:#ff7f0e;stroke:#ff7f0e;" x="374.604943" xlink:href="#m33e48a075a" y="167.792776"/>
     <use style="fill:#ff7f0e;stroke:#ff7f0e;" x="369.480976" xlink:href="#m33e48a075a" y="165.278534"/>
     <use style="fill:#ff7f0e;stroke:#ff7f0e;" x="364.357009" xlink:href="#m33e48a075a" y="163.05429"/>
     <use style="fill:#ff7f0e;stroke:#ff7f0e;" x="359.233042" xlink:href="#m33e48a075a" y="161.123133"/>
     <use style="fill:#ff7f0e;stroke:#ff7f0e;" x="354.109075" xlink:href="#m33e48a075a" y="159.48834"/>
     <use style="fill:#ff7f0e;stroke:#ff7f0e;" x="348.985108" xlink:href="#m33e48a075a" y="158.153397"/>
     <use style="fill:#ff7f0e;stroke:#ff7f0e;" x="343.861142" xlink:href="#m33e48a075a" y="157.122009"/>
     <use style="fill:#ff7f0e;stroke:#ff7f0e;" x="338.737175" xlink:href="#m33e48a075a" y="156.398122"/>
     <use style="fill:#ff7f0e;stroke:#ff7f0e;" x="333.613208" xlink:href="#m33e48a075a" y="155.985944"/>
     <use style="fill:#ff7f0e;stroke:#ff7f0e;" x="328.489241" xlink:href="#m33e48a075a" y="155.889966"/>
     <use style="fill:#ff7f0e;stroke:#ff7f0e;" x="323.365274" xlink:href="#m33e48a075a" y="156.114989"/>
     <use style="fill:#ff7f0e;stroke:#ff7f0e;" x="318.241307" xlink:href="#m33e48a075a" y="156.66615"/>
     <use style="fill:#ff7f0e;stroke:#ff7f0e;" x="313.11734" xlink:href="#m33e48a075a" y="157.548956"/>
     <use style="fill:#ff7f0e;stroke:#ff7f0e;" x="307.993373" xlink:href="#m33e48a075a" y="158.769317"/>
     <use style="fill:#ff7f0e;stroke:#ff7f0e;" x="302.869406" xlink:href="#m33e48a075a" y="160.333584"/>
     <use style="fill:#ff7f0e;stroke:#ff7f0e;" x="297.745439" xlink:href="#m33e48a075a" y="162.248598"/>
     <use style="fill:#ff7f0e;stroke:#ff7f0e;" x="292.621472" xlink:href="#m33e48a075a" y="164.521732"/>
     <use style="fill:#ff7f0e;stroke:#ff7f0e;" x="287.497505" xlink:href="#m33e48a075a" y="166.840288"/>
     <use style="fill:#ff7f0e;stroke:#ff7f0e;" x="282.373538" xlink:href="#m33e48a075a" y="168.917519"/>
     <use style="fill:#ff7f0e;stroke:#ff7f0e;" x="277.249571" xlink:href="#m33e48a075a" y="170.791851"/>
     <use style="fill:#ff7f0e;stroke:#ff7f0e;" x="272.125604" xlink:href="#m33e48a075a" y="172.493208"/>
     <use style="fill:#ff7f0e;stroke:#ff7f0e;" x="267.001637" xlink:href="#m33e48a075a" y="174.045326"/>
     <use style="fill:#ff7f0e;stroke:#ff7f0e;" x="261.87767" xlink:href="#m33e48a075a" y="175.467338"/>
     <use style="fill:#ff7f0e;stroke:#ff7f0e;" x="256.753704" xlink:href="#m33e48a075a" y="176.774879"/>
     <use style="fill:#ff7f0e;stroke:#ff7f0e;" x="251.629737" xlink:href="#m33e48a075a" y="177.980882"/>
     <use style="fill:#ff7f0e;stroke:#ff7f0e;" x="246.50577" xlink:href="#m33e48a075a" y="179.096153"/>
     <use style="fill:#ff7f0e;stroke:#ff7f0e;" x="241.381803" xlink:href="#m33e48a075a" y="180.129813"/>
     <use style="fill:#ff7f0e;stroke:#ff7f0e;" x="236.257836" xlink:href="#m33e48a075a" y="181.089619"/>
     <use style="fill:#ff7f0e;stroke:#ff7f0e;" x="231.133869" xlink:href="#m33e48a075a" y="181.982219"/>
     <use style="fill:#ff7f0e;stroke:#ff7f0e;" x="226.009902" xlink:href="#m33e48a075a" y="182.813349"/>
     <use style="fill:#ff7f0e;stroke:#ff7f0e;" x="220.885935" xlink:href="#m33e48a075a" y="183.587984"/>
     <use style="fill:#ff7f0e;stroke:#ff7f0e;" x="215.761968" xlink:href="#m33e48a075a" y="184.310466"/>
     <use style="fill:#ff7f0e;stroke:#ff7f0e;" x="210.638001" xlink:href="#m33e48a075a" y="184.984601"/>
     <use style="fill:#ff7f0e;stroke:#ff7f0e;" x="205.514034" xlink:href="#m33e48a075a" y="185.613738"/>
     <use style="fill:#ff7f0e;stroke:#ff7f0e;" x="200.390067" xlink:href="#m33e48a075a" y="186.200835"/>
     <use style="fill:#ff7f0e;stroke:#ff7f0e;" x="195.2661" xlink:href="#m33e48a075a" y="186.748514"/>
     <use style="fill:#ff7f0e;stroke:#ff7f0e;" x="190.142133" xlink:href="#m33e48a075a" y="187.259105"/>
     <use style="fill:#ff7f0e;stroke:#ff7f0e;" x="185.018166" xlink:href="#m33e48a075a" y="187.734686"/>
     <use style="fill:#ff7f0e;stroke:#ff7f0e;" x="179.894199" xlink:href="#m33e48a075a" y="188.177108"/>
     <use style="fill:#ff7f0e;stroke:#ff7f0e;" x="174.770232" xlink:href="#m33e48a075a" y="188.588029"/>
     <use style="fill:#ff7f0e;stroke:#ff7f0e;" x="169.646265" xlink:href="#m33e48a075a" y="188.968931"/>
     <use style="fill:#ff7f0e;stroke:#ff7f0e;" x="164.522299" xlink:href="#m33e48a075a" y="189.321141"/>
     <use style="fill:#ff7f0e;stroke:#ff7f0e;" x="159.398332" xlink:href="#m33e48a075a" y="189.645848"/>
     <use style="fill:#ff7f0e;stroke:#ff7f0e;" x="154.274365" xlink:href="#m33e48a075a" y="189.944113"/>
     <use style="fill:#ff7f0e;stroke:#ff7f0e;" x="149.150398" xlink:href="#m33e48a075a" y="190.216887"/>
     <use style="fill:#ff7f0e;stroke:#ff7f0e;" x="144.026431" xlink:href="#m33e48a075a" y="190.465017"/>
     <use style="fill:#ff7f0e;stroke:#ff7f0e;" x="138.902464" xlink:href="#m33e48a075a" y="190.689255"/>
     <use style="fill:#ff7f0e;stroke:#ff7f0e;" x="133.778497" xlink:href="#m33e48a075a" y="190.890266"/>
     <use style="fill:#ff7f0e;stroke:#ff7f0e;" x="128.65453" xlink:href="#m33e48a075a" y="191.068637"/>
     <use style="fill:#ff7f0e;stroke:#ff7f0e;" x="123.530563" xlink:href="#m33e48a075a" y="191.224877"/>
     <use style="fill:#ff7f0e;stroke:#ff7f0e;" x="118.406596" xlink:href="#m33e48a075a" y="191.359427"/>
     <use style="fill:#ff7f0e;stroke:#ff7f0e;" x="113.282629" xlink:href="#m33e48a075a" y="191.472662"/>
     <use style="fill:#ff7f0e;stroke:#ff7f0e;" x="108.158662" xlink:href="#m33e48a075a" y="191.564893"/>
     <use style="fill:#ff7f0e;stroke:#ff7f0e;" x="103.034695" xlink:href="#m33e48a075a" y="191.636371"/>
     <use style="fill:#ff7f0e;stroke:#ff7f0e;" x="97.910728" xlink:href="#m33e48a075a" y="191.68729"/>
     <use style="fill:#ff7f0e;stroke:#ff7f0e;" x="92.786761" xlink:href="#m33e48a075a" y="191.717787"/>
    </g>
   </g>
   <g id="line2d_33">
    <path clip-path="url(#pb1a71c4285)" d="M 600.059489 211.177077 
L 592.373538 209.695691 
L 584.687588 208.155482 
L 577.001637 206.552539 
L 569.315687 204.882566 
L 561.629737 203.140833 
L 553.943786 201.32211 
L 546.257836 199.420598 
L 538.571885 197.42984 
L 530.885935 195.342623 
L 523.199985 193.150846 
L 515.514034 190.845376 
L 507.828084 188.415859 
L 500.142133 185.85049 
L 492.456183 183.135727 
L 484.770232 180.255929 
L 477.084282 177.192889 
L 469.398332 173.925239 
L 461.712381 170.427652 
L 454.026431 166.669791 
L 446.34048 162.61486 
L 438.65453 158.2176 
L 430.96858 153.421423 
L 423.282629 148.154196 
L 415.596679 142.54694 
L 407.910728 137.272501 
L 400.224778 132.388321 
L 392.538827 127.89816 
L 384.852877 123.806097 
L 377.166927 120.116564 
L 369.480976 116.834386 
L 361.795026 113.96483 
L 354.109075 111.513653 
L 346.423125 109.487164 
L 338.737175 107.892297 
L 331.051224 106.736688 
L 323.365274 106.028771 
L 315.679323 105.777889 
L 307.993373 105.994425 
L 300.307423 106.68995 
L 292.621472 107.877414 
L 284.935522 109.571355 
L 277.249571 111.788168 
L 269.563621 114.546419 
L 261.87767 117.651008 
L 254.19172 120.442977 
L 246.50577 122.925634 
L 238.819819 125.144146 
L 231.133869 127.13411 
L 223.447918 128.924018 
L 215.761968 130.536978 
L 208.076018 131.991935 
L 200.390067 133.304572 
L 192.704117 134.487968 
L 185.018166 135.553105 
L 177.332216 136.509242 
L 169.646265 137.364219 
L 161.960315 138.124681 
L 154.274365 138.796264 
L 146.588414 139.383737 
L 138.902464 139.891117 
L 131.216513 140.321762 
L 123.530563 140.678441 
L 115.844613 140.963394 
L 108.158662 141.178377 
L 100.472712 141.324691 
" style="fill:none;stroke:#2ca02c;stroke-linecap:square;stroke-width:1.5;"/>
    <defs>
     <path d="M 0 1.5 
C 0.397805 1.5 0.77937 1.341951 1.06066 1.06066 
C 1.341951 0.77937 1.5 0.397805 1.5 0 
C 1.5 -0.397805 1.341951 -0.77937 1.06066 -1.06066 
C 0.77937 -1.341951 0.397805 -1.5 0 -1.5 
C -0.397805 -1.5 -0.77937 -1.341951 -1.06066 -1.06066 
C -1.341951 -0.77937 -1.5 -0.397805 -1.5 0 
C -1.5 0.397805 -1.341951 0.77937 -1.06066 1.06066 
C -0.77937 1.341951 -0.397805 1.5 0 1.5 
z
" id="m320a77c576" style="stroke:#2ca02c;"/>
    </defs>
    <g clip-path="url(#pb1a71c4285)">
     <use style="fill:#2ca02c;stroke:#2ca02c;" x="600.059489" xlink:href="#m320a77c576" y="211.177077"/>
     <use style="fill:#2ca02c;stroke:#2ca02c;" x="592.373538" xlink:href="#m320a77c576" y="209.695691"/>
     <use style="fill:#2ca02c;stroke:#2ca02c;" x="584.687588" xlink:href="#m320a77c576" y="208.155482"/>
     <use style="fill:#2ca02c;stroke:#2ca02c;" x="577.001637" xlink:href="#m320a77c576" y="206.552539"/>
     <use style="fill:#2ca02c;stroke:#2ca02c;" x="569.315687" xlink:href="#m320a77c576" y="204.882566"/>
     <use style="fill:#2ca02c;stroke:#2ca02c;" x="561.629737" xlink:href="#m320a77c576" y="203.140833"/>
     <use style="fill:#2ca02c;stroke:#2ca02c;" x="553.943786" xlink:href="#m320a77c576" y="201.32211"/>
     <use style="fill:#2ca02c;stroke:#2ca02c;" x="546.257836" xlink:href="#m320a77c576" y="199.420598"/>
     <use style="fill:#2ca02c;stroke:#2ca02c;" x="538.571885" xlink:href="#m320a77c576" y="197.42984"/>
     <use style="fill:#2ca02c;stroke:#2ca02c;" x="530.885935" xlink:href="#m320a77c576" y="195.342623"/>
     <use style="fill:#2ca02c;stroke:#2ca02c;" x="523.199985" xlink:href="#m320a77c576" y="193.150846"/>
     <use style="fill:#2ca02c;stroke:#2ca02c;" x="515.514034" xlink:href="#m320a77c576" y="190.845376"/>
     <use style="fill:#2ca02c;stroke:#2ca02c;" x="507.828084" xlink:href="#m320a77c576" y="188.415859"/>
     <use style="fill:#2ca02c;stroke:#2ca02c;" x="500.142133" xlink:href="#m320a77c576" y="185.85049"/>
     <use style="fill:#2ca02c;stroke:#2ca02c;" x="492.456183" xlink:href="#m320a77c576" y="183.135727"/>
     <use style="fill:#2ca02c;stroke:#2ca02c;" x="484.770232" xlink:href="#m320a77c576" y="180.255929"/>
     <use style="fill:#2ca02c;stroke:#2ca02c;" x="477.084282" xlink:href="#m320a77c576" y="177.192889"/>
     <use style="fill:#2ca02c;stroke:#2ca02c;" x="469.398332" xlink:href="#m320a77c576" y="173.925239"/>
     <use style="fill:#2ca02c;stroke:#2ca02c;" x="461.712381" xlink:href="#m320a77c576" y="170.427652"/>
     <use style="fill:#2ca02c;stroke:#2ca02c;" x="454.026431" xlink:href="#m320a77c576" y="166.669791"/>
     <use style="fill:#2ca02c;stroke:#2ca02c;" x="446.34048" xlink:href="#m320a77c576" y="162.61486"/>
     <use style="fill:#2ca02c;stroke:#2ca02c;" x="438.65453" xlink:href="#m320a77c576" y="158.2176"/>
     <use style="fill:#2ca02c;stroke:#2ca02c;" x="430.96858" xlink:href="#m320a77c576" y="153.421423"/>
     <use style="fill:#2ca02c;stroke:#2ca02c;" x="423.282629" xlink:href="#m320a77c576" y="148.154196"/>
     <use style="fill:#2ca02c;stroke:#2ca02c;" x="415.596679" xlink:href="#m320a77c576" y="142.54694"/>
     <use style="fill:#2ca02c;stroke:#2ca02c;" x="407.910728" xlink:href="#m320a77c576" y="137.272501"/>
     <use style="fill:#2ca02c;stroke:#2ca02c;" x="400.224778" xlink:href="#m320a77c576" y="132.388321"/>
     <use style="fill:#2ca02c;stroke:#2ca02c;" x="392.538827" xlink:href="#m320a77c576" y="127.89816"/>
     <use style="fill:#2ca02c;stroke:#2ca02c;" x="384.852877" xlink:href="#m320a77c576" y="123.806097"/>
     <use style="fill:#2ca02c;stroke:#2ca02c;" x="377.166927" xlink:href="#m320a77c576" y="120.116564"/>
     <use style="fill:#2ca02c;stroke:#2ca02c;" x="369.480976" xlink:href="#m320a77c576" y="116.834386"/>
     <use style="fill:#2ca02c;stroke:#2ca02c;" x="361.795026" xlink:href="#m320a77c576" y="113.96483"/>
     <use style="fill:#2ca02c;stroke:#2ca02c;" x="354.109075" xlink:href="#m320a77c576" y="111.513653"/>
     <use style="fill:#2ca02c;stroke:#2ca02c;" x="346.423125" xlink:href="#m320a77c576" y="109.487164"/>
     <use style="fill:#2ca02c;stroke:#2ca02c;" x="338.737175" xlink:href="#m320a77c576" y="107.892297"/>
     <use style="fill:#2ca02c;stroke:#2ca02c;" x="331.051224" xlink:href="#m320a77c576" y="106.736688"/>
     <use style="fill:#2ca02c;stroke:#2ca02c;" x="323.365274" xlink:href="#m320a77c576" y="106.028771"/>
     <use style="fill:#2ca02c;stroke:#2ca02c;" x="315.679323" xlink:href="#m320a77c576" y="105.777889"/>
     <use style="fill:#2ca02c;stroke:#2ca02c;" x="307.993373" xlink:href="#m320a77c576" y="105.994425"/>
     <use style="fill:#2ca02c;stroke:#2ca02c;" x="300.307423" xlink:href="#m320a77c576" y="106.68995"/>
     <use style="fill:#2ca02c;stroke:#2ca02c;" x="292.621472" xlink:href="#m320a77c576" y="107.877414"/>
     <use style="fill:#2ca02c;stroke:#2ca02c;" x="284.935522" xlink:href="#m320a77c576" y="109.571355"/>
     <use style="fill:#2ca02c;stroke:#2ca02c;" x="277.249571" xlink:href="#m320a77c576" y="111.788168"/>
     <use style="fill:#2ca02c;stroke:#2ca02c;" x="269.563621" xlink:href="#m320a77c576" y="114.546419"/>
     <use style="fill:#2ca02c;stroke:#2ca02c;" x="261.87767" xlink:href="#m320a77c576" y="117.651008"/>
     <use style="fill:#2ca02c;stroke:#2ca02c;" x="254.19172" xlink:href="#m320a77c576" y="120.442977"/>
     <use style="fill:#2ca02c;stroke:#2ca02c;" x="246.50577" xlink:href="#m320a77c576" y="122.925634"/>
     <use style="fill:#2ca02c;stroke:#2ca02c;" x="238.819819" xlink:href="#m320a77c576" y="125.144146"/>
     <use style="fill:#2ca02c;stroke:#2ca02c;" x="231.133869" xlink:href="#m320a77c576" y="127.13411"/>
     <use style="fill:#2ca02c;stroke:#2ca02c;" x="223.447918" xlink:href="#m320a77c576" y="128.924018"/>
     <use style="fill:#2ca02c;stroke:#2ca02c;" x="215.761968" xlink:href="#m320a77c576" y="130.536978"/>
     <use style="fill:#2ca02c;stroke:#2ca02c;" x="208.076018" xlink:href="#m320a77c576" y="131.991935"/>
     <use style="fill:#2ca02c;stroke:#2ca02c;" x="200.390067" xlink:href="#m320a77c576" y="133.304572"/>
     <use style="fill:#2ca02c;stroke:#2ca02c;" x="192.704117" xlink:href="#m320a77c576" y="134.487968"/>
     <use style="fill:#2ca02c;stroke:#2ca02c;" x="185.018166" xlink:href="#m320a77c576" y="135.553105"/>
     <use style="fill:#2ca02c;stroke:#2ca02c;" x="177.332216" xlink:href="#m320a77c576" y="136.509242"/>
     <use style="fill:#2ca02c;stroke:#2ca02c;" x="169.646265" xlink:href="#m320a77c576" y="137.364219"/>
     <use style="fill:#2ca02c;stroke:#2ca02c;" x="161.960315" xlink:href="#m320a77c576" y="138.124681"/>
     <use style="fill:#2ca02c;stroke:#2ca02c;" x="154.274365" xlink:href="#m320a77c576" y="138.796264"/>
     <use style="fill:#2ca02c;stroke:#2ca02c;" x="146.588414" xlink:href="#m320a77c576" y="139.383737"/>
     <use style="fill:#2ca02c;stroke:#2ca02c;" x="138.902464" xlink:href="#m320a77c576" y="139.891117"/>
     <use style="fill:#2ca02c;stroke:#2ca02c;" x="131.216513" xlink:href="#m320a77c576" y="140.321762"/>
     <use style="fill:#2ca02c;stroke:#2ca02c;" x="123.530563" xlink:href="#m320a77c576" y="140.678441"/>
     <use style="fill:#2ca02c;stroke:#2ca02c;" x="115.844613" xlink:href="#m320a77c576" y="140.963394"/>
     <use style="fill:#2ca02c;stroke:#2ca02c;" x="108.158662" xlink:href="#m320a77c576" y="141.178377"/>
     <use style="fill:#2ca02c;stroke:#2ca02c;" x="100.472712" xlink:href="#m320a77c576" y="141.324691"/>
    </g>
   </g>
   <g id="line2d_34">
    <path clip-path="url(#pb1a71c4285)" d="M 600.059489 183.310659 
L 589.811555 180.647783 
L 579.563621 177.841039 
L 569.315687 174.877248 
L 559.067753 171.741421 
L 548.819819 168.416408 
L 538.571885 164.882467 
L 528.323951 161.116704 
L 518.076018 157.092373 
L 507.828084 152.777944 
L 497.58015 148.135887 
L 487.332216 143.121023 
L 477.084282 137.678276 
L 466.836348 131.739496 
L 456.588414 125.218907 
L 446.34048 118.006327 
L 436.092546 110.643527 
L 425.844613 103.764066 
L 415.596679 97.371687 
L 405.348745 91.470546 
L 395.100811 86.06527 
L 384.852877 81.161024 
L 374.604943 76.763597 
L 364.357009 72.879498 
L 354.109075 69.516069 
L 343.861142 66.681631 
L 333.613208 64.385649 
L 323.365274 62.638944 
L 313.11734 61.453943 
L 302.869406 60.845004 
L 292.621472 60.828803 
L 282.373538 61.42484 
L 272.125604 62.656083 
L 261.87767 64.549787 
L 251.629737 67.138588 
L 241.381803 70.461939 
L 231.133869 73.917395 
L 220.885935 76.924709 
L 210.638001 79.54881 
L 200.390067 81.840088 
L 190.142133 83.838193 
L 179.894199 85.574661 
L 169.646265 87.074761 
L 159.398332 88.358818 
L 149.150398 89.443188 
L 138.902464 90.340965 
L 128.65453 91.062518 
L 118.406596 91.615877 
L 108.158662 92.007022 
L 97.910728 92.240092 
" style="fill:none;stroke:#d62728;stroke-linecap:square;stroke-width:1.5;"/>
    <defs>
     <path d="M 0 1.5 
C 0.397805 1.5 0.77937 1.341951 1.06066 1.06066 
C 1.341951 0.77937 1.5 0.397805 1.5 0 
C 1.5 -0.397805 1.341951 -0.77937 1.06066 -1.06066 
C 0.77937 -1.341951 0.397805 -1.5 0 -1.5 
C -0.397805 -1.5 -0.77937 -1.341951 -1.06066 -1.06066 
C -1.341951 -0.77937 -1.5 -0.397805 -1.5 0 
C -1.5 0.397805 -1.341951 0.77937 -1.06066 1.06066 
C -0.77937 1.341951 -0.397805 1.5 0 1.5 
z
" id="m7e128bad53" style="stroke:#d62728;"/>
    </defs>
    <g clip-path="url(#pb1a71c4285)">
     <use style="fill:#d62728;stroke:#d62728;" x="600.059489" xlink:href="#m7e128bad53" y="183.310659"/>
     <use style="fill:#d62728;stroke:#d62728;" x="589.811555" xlink:href="#m7e128bad53" y="180.647783"/>
     <use style="fill:#d62728;stroke:#d62728;" x="579.563621" xlink:href="#m7e128bad53" y="177.841039"/>
     <use style="fill:#d62728;stroke:#d62728;" x="569.315687" xlink:href="#m7e128bad53" y="174.877248"/>
     <use style="fill:#d62728;stroke:#d62728;" x="559.067753" xlink:href="#m7e128bad53" y="171.741421"/>
     <use style="fill:#d62728;stroke:#d62728;" x="548.819819" xlink:href="#m7e128bad53" y="168.416408"/>
     <use style="fill:#d62728;stroke:#d62728;" x="538.571885" xlink:href="#m7e128bad53" y="164.882467"/>
     <use style="fill:#d62728;stroke:#d62728;" x="528.323951" xlink:href="#m7e128bad53" y="161.116704"/>
     <use style="fill:#d62728;stroke:#d62728;" x="518.076018" xlink:href="#m7e128bad53" y="157.092373"/>
     <use style="fill:#d62728;stroke:#d62728;" x="507.828084" xlink:href="#m7e128bad53" y="152.777944"/>
     <use style="fill:#d62728;stroke:#d62728;" x="497.58015" xlink:href="#m7e128bad53" y="148.135887"/>
     <use style="fill:#d62728;stroke:#d62728;" x="487.332216" xlink:href="#m7e128bad53" y="143.121023"/>
     <use style="fill:#d62728;stroke:#d62728;" x="477.084282" xlink:href="#m7e128bad53" y="137.678276"/>
     <use style="fill:#d62728;stroke:#d62728;" x="466.836348" xlink:href="#m7e128bad53" y="131.739496"/>
     <use style="fill:#d62728;stroke:#d62728;" x="456.588414" xlink:href="#m7e128bad53" y="125.218907"/>
     <use style="fill:#d62728;stroke:#d62728;" x="446.34048" xlink:href="#m7e128bad53" y="118.006327"/>
     <use style="fill:#d62728;stroke:#d62728;" x="436.092546" xlink:href="#m7e128bad53" y="110.643527"/>
     <use style="fill:#d62728;stroke:#d62728;" x="425.844613" xlink:href="#m7e128bad53" y="103.764066"/>
     <use style="fill:#d62728;stroke:#d62728;" x="415.596679" xlink:href="#m7e128bad53" y="97.371687"/>
     <use style="fill:#d62728;stroke:#d62728;" x="405.348745" xlink:href="#m7e128bad53" y="91.470546"/>
     <use style="fill:#d62728;stroke:#d62728;" x="395.100811" xlink:href="#m7e128bad53" y="86.06527"/>
     <use style="fill:#d62728;stroke:#d62728;" x="384.852877" xlink:href="#m7e128bad53" y="81.161024"/>
     <use style="fill:#d62728;stroke:#d62728;" x="374.604943" xlink:href="#m7e128bad53" y="76.763597"/>
     <use style="fill:#d62728;stroke:#d62728;" x="364.357009" xlink:href="#m7e128bad53" y="72.879498"/>
     <use style="fill:#d62728;stroke:#d62728;" x="354.109075" xlink:href="#m7e128bad53" y="69.516069"/>
     <use style="fill:#d62728;stroke:#d62728;" x="343.861142" xlink:href="#m7e128bad53" y="66.681631"/>
     <use style="fill:#d62728;stroke:#d62728;" x="333.613208" xlink:href="#m7e128bad53" y="64.385649"/>
     <use style="fill:#d62728;stroke:#d62728;" x="323.365274" xlink:href="#m7e128bad53" y="62.638944"/>
     <use style="fill:#d62728;stroke:#d62728;" x="313.11734" xlink:href="#m7e128bad53" y="61.453943"/>
     <use style="fill:#d62728;stroke:#d62728;" x="302.869406" xlink:href="#m7e128bad53" y="60.845004"/>
     <use style="fill:#d62728;stroke:#d62728;" x="292.621472" xlink:href="#m7e128bad53" y="60.828803"/>
     <use style="fill:#d62728;stroke:#d62728;" x="282.373538" xlink:href="#m7e128bad53" y="61.42484"/>
     <use style="fill:#d62728;stroke:#d62728;" x="272.125604" xlink:href="#m7e128bad53" y="62.656083"/>
     <use style="fill:#d62728;stroke:#d62728;" x="261.87767" xlink:href="#m7e128bad53" y="64.549787"/>
     <use style="fill:#d62728;stroke:#d62728;" x="251.629737" xlink:href="#m7e128bad53" y="67.138588"/>
     <use style="fill:#d62728;stroke:#d62728;" x="241.381803" xlink:href="#m7e128bad53" y="70.461939"/>
     <use style="fill:#d62728;stroke:#d62728;" x="231.133869" xlink:href="#m7e128bad53" y="73.917395"/>
     <use style="fill:#d62728;stroke:#d62728;" x="220.885935" xlink:href="#m7e128bad53" y="76.924709"/>
     <use style="fill:#d62728;stroke:#d62728;" x="210.638001" xlink:href="#m7e128bad53" y="79.54881"/>
     <use style="fill:#d62728;stroke:#d62728;" x="200.390067" xlink:href="#m7e128bad53" y="81.840088"/>
     <use style="fill:#d62728;stroke:#d62728;" x="190.142133" xlink:href="#m7e128bad53" y="83.838193"/>
     <use style="fill:#d62728;stroke:#d62728;" x="179.894199" xlink:href="#m7e128bad53" y="85.574661"/>
     <use style="fill:#d62728;stroke:#d62728;" x="169.646265" xlink:href="#m7e128bad53" y="87.074761"/>
     <use style="fill:#d62728;stroke:#d62728;" x="159.398332" xlink:href="#m7e128bad53" y="88.358818"/>
     <use style="fill:#d62728;stroke:#d62728;" x="149.150398" xlink:href="#m7e128bad53" y="89.443188"/>
     <use style="fill:#d62728;stroke:#d62728;" x="138.902464" xlink:href="#m7e128bad53" y="90.340965"/>
     <use style="fill:#d62728;stroke:#d62728;" x="128.65453" xlink:href="#m7e128bad53" y="91.062518"/>
     <use style="fill:#d62728;stroke:#d62728;" x="118.406596" xlink:href="#m7e128bad53" y="91.615877"/>
     <use style="fill:#d62728;stroke:#d62728;" x="108.158662" xlink:href="#m7e128bad53" y="92.007022"/>
     <use style="fill:#d62728;stroke:#d62728;" x="97.910728" xlink:href="#m7e128bad53" y="92.240092"/>
    </g>
   </g>
   <g id="line2d_35">
    <path clip-path="url(#pb1a71c4285)" d="M 600.059489 155.313096 
L 587.249571 151.100383 
L 574.439654 146.596835 
L 561.629737 141.767941 
L 548.819819 136.572948 
L 536.009902 130.963261 
L 523.199985 124.880286 
L 510.390067 118.252472 
L 497.58015 110.99116 
L 484.770232 102.984596 
L 471.960315 94.089041 
L 459.150398 84.974991 
L 446.34048 76.431551 
L 433.530563 68.461645 
L 420.720646 61.068625 
L 407.910728 54.256341 
L 395.100811 48.029233 
L 382.290894 42.392447 
L 369.480976 37.351977 
L 356.671059 32.914837 
L 343.861142 29.089282 
L 331.051224 25.885092 
L 318.241307 23.313934 
L 305.431389 21.389827 
L 292.621472 20.129766 
L 279.811555 19.554545 
L 267.001637 19.689889 
L 254.19172 20.568001 
L 241.381803 22.229769 
L 228.571885 24.727951 
L 215.761968 28.131922 
L 202.952051 31.711733 
L 190.142133 34.738422 
L 177.332216 37.283349 
L 164.522299 39.401068 
L 151.712381 41.133436 
L 138.902464 42.512438 
L 126.092546 43.562155 
L 113.282629 44.300128 
" style="fill:none;stroke:#9467bd;stroke-linecap:square;stroke-width:1.5;"/>
    <defs>
     <path d="M 0 1.5 
C 0.397805 1.5 0.77937 1.341951 1.06066 1.06066 
C 1.341951 0.77937 1.5 0.397805 1.5 0 
C 1.5 -0.397805 1.341951 -0.77937 1.06066 -1.06066 
C 0.77937 -1.341951 0.397805 -1.5 0 -1.5 
C -0.397805 -1.5 -0.77937 -1.341951 -1.06066 -1.06066 
C -1.341951 -0.77937 -1.5 -0.397805 -1.5 0 
C -1.5 0.397805 -1.341951 0.77937 -1.06066 1.06066 
C -0.77937 1.341951 -0.397805 1.5 0 1.5 
z
" id="m8b802e9a88" style="stroke:#9467bd;"/>
    </defs>
    <g clip-path="url(#pb1a71c4285)">
     <use style="fill:#9467bd;stroke:#9467bd;" x="600.059489" xlink:href="#m8b802e9a88" y="155.313096"/>
     <use style="fill:#9467bd;stroke:#9467bd;" x="587.249571" xlink:href="#m8b802e9a88" y="151.100383"/>
     <use style="fill:#9467bd;stroke:#9467bd;" x="574.439654" xlink:href="#m8b802e9a88" y="146.596835"/>
     <use style="fill:#9467bd;stroke:#9467bd;" x="561.629737" xlink:href="#m8b802e9a88" y="141.767941"/>
     <use style="fill:#9467bd;stroke:#9467bd;" x="548.819819" xlink:href="#m8b802e9a88" y="136.572948"/>
     <use style="fill:#9467bd;stroke:#9467bd;" x="536.009902" xlink:href="#m8b802e9a88" y="130.963261"/>
     <use style="fill:#9467bd;stroke:#9467bd;" x="523.199985" xlink:href="#m8b802e9a88" y="124.880286"/>
     <use style="fill:#9467bd;stroke:#9467bd;" x="510.390067" xlink:href="#m8b802e9a88" y="118.252472"/>
     <use style="fill:#9467bd;stroke:#9467bd;" x="497.58015" xlink:href="#m8b802e9a88" y="110.99116"/>
     <use style="fill:#9467bd;stroke:#9467bd;" x="484.770232" xlink:href="#m8b802e9a88" y="102.984596"/>
     <use style="fill:#9467bd;stroke:#9467bd;" x="471.960315" xlink:href="#m8b802e9a88" y="94.089041"/>
     <use style="fill:#9467bd;stroke:#9467bd;" x="459.150398" xlink:href="#m8b802e9a88" y="84.974991"/>
     <use style="fill:#9467bd;stroke:#9467bd;" x="446.34048" xlink:href="#m8b802e9a88" y="76.431551"/>
     <use style="fill:#9467bd;stroke:#9467bd;" x="433.530563" xlink:href="#m8b802e9a88" y="68.461645"/>
     <use style="fill:#9467bd;stroke:#9467bd;" x="420.720646" xlink:href="#m8b802e9a88" y="61.068625"/>
     <use style="fill:#9467bd;stroke:#9467bd;" x="407.910728" xlink:href="#m8b802e9a88" y="54.256341"/>
     <use style="fill:#9467bd;stroke:#9467bd;" x="395.100811" xlink:href="#m8b802e9a88" y="48.029233"/>
     <use style="fill:#9467bd;stroke:#9467bd;" x="382.290894" xlink:href="#m8b802e9a88" y="42.392447"/>
     <use style="fill:#9467bd;stroke:#9467bd;" x="369.480976" xlink:href="#m8b802e9a88" y="37.351977"/>
     <use style="fill:#9467bd;stroke:#9467bd;" x="356.671059" xlink:href="#m8b802e9a88" y="32.914837"/>
     <use style="fill:#9467bd;stroke:#9467bd;" x="343.861142" xlink:href="#m8b802e9a88" y="29.089282"/>
     <use style="fill:#9467bd;stroke:#9467bd;" x="331.051224" xlink:href="#m8b802e9a88" y="25.885092"/>
     <use style="fill:#9467bd;stroke:#9467bd;" x="318.241307" xlink:href="#m8b802e9a88" y="23.313934"/>
     <use style="fill:#9467bd;stroke:#9467bd;" x="305.431389" xlink:href="#m8b802e9a88" y="21.389827"/>
     <use style="fill:#9467bd;stroke:#9467bd;" x="292.621472" xlink:href="#m8b802e9a88" y="20.129766"/>
     <use style="fill:#9467bd;stroke:#9467bd;" x="279.811555" xlink:href="#m8b802e9a88" y="19.554545"/>
     <use style="fill:#9467bd;stroke:#9467bd;" x="267.001637" xlink:href="#m8b802e9a88" y="19.689889"/>
     <use style="fill:#9467bd;stroke:#9467bd;" x="254.19172" xlink:href="#m8b802e9a88" y="20.568001"/>
     <use style="fill:#9467bd;stroke:#9467bd;" x="241.381803" xlink:href="#m8b802e9a88" y="22.229769"/>
     <use style="fill:#9467bd;stroke:#9467bd;" x="228.571885" xlink:href="#m8b802e9a88" y="24.727951"/>
     <use style="fill:#9467bd;stroke:#9467bd;" x="215.761968" xlink:href="#m8b802e9a88" y="28.131922"/>
     <use style="fill:#9467bd;stroke:#9467bd;" x="202.952051" xlink:href="#m8b802e9a88" y="31.711733"/>
     <use style="fill:#9467bd;stroke:#9467bd;" x="190.142133" xlink:href="#m8b802e9a88" y="34.738422"/>
     <use style="fill:#9467bd;stroke:#9467bd;" x="177.332216" xlink:href="#m8b802e9a88" y="37.283349"/>
     <use style="fill:#9467bd;stroke:#9467bd;" x="164.522299" xlink:href="#m8b802e9a88" y="39.401068"/>
     <use style="fill:#9467bd;stroke:#9467bd;" x="151.712381" xlink:href="#m8b802e9a88" y="41.133436"/>
     <use style="fill:#9467bd;stroke:#9467bd;" x="138.902464" xlink:href="#m8b802e9a88" y="42.512438"/>
     <use style="fill:#9467bd;stroke:#9467bd;" x="126.092546" xlink:href="#m8b802e9a88" y="43.562155"/>
     <use style="fill:#9467bd;stroke:#9467bd;" x="113.282629" xlink:href="#m8b802e9a88" y="44.300128"/>
    </g>
   </g>
   <g id="patch_3">
    <path d="M 67.423125 279 
L 67.423125 7.2 
" style="fill:none;stroke:#000000;stroke-linecap:square;stroke-linejoin:miter;stroke-width:0.8;"/>
   </g>
   <g id="patch_4">
    <path d="M 625.423125 279 
L 625.423125 7.2 
" style="fill:none;stroke:#000000;stroke-linecap:square;stroke-linejoin:miter;stroke-width:0.8;"/>
   </g>
   <g id="patch_5">
    <path d="M 67.423125 279 
L 625.423125 279 
" style="fill:none;stroke:#000000;stroke-linecap:square;stroke-linejoin:miter;stroke-width:0.8;"/>
   </g>
   <g id="patch_6">
    <path d="M 67.423125 7.2 
L 625.423125 7.2 
" style="fill:none;stroke:#000000;stroke-linecap:square;stroke-linejoin:miter;stroke-width:0.8;"/>
   </g>
   <g id="legend_1">
    <g id="patch_7">
     <path d="M 530.123125 113.7 
L 618.423125 113.7 
Q 620.423125 113.7 620.423125 111.7 
L 620.423125 14.2 
Q 620.423125 12.2 618.423125 12.2 
L 530.123125 12.2 
Q 528.123125 12.2 528.123125 14.2 
L 528.123125 111.7 
Q 528.123125 113.7 530.123125 113.7 
z
" style="fill:#ffffff;opacity:0.8;stroke:#cccccc;stroke-linejoin:miter;"/>
    </g>
    <g id="line2d_36">
     <path d="M 532.123125 22.3 
L 552.123125 22.3 
" style="fill:none;stroke:#1f77b4;stroke-linecap:square;stroke-width:1.5;"/>
    </g>
    <g id="line2d_37">
     <g>
      <use style="fill:#1f77b4;stroke:#1f77b4;" x="542.123125" xlink:href="#m1157dce619" y="22.3"/>
     </g>
    </g>
    <g id="text_18">
     <!-- $q = \frac{r_0}{R_0} =$0.1 -->
     <g transform="translate(560.123125 25.8)scale(0.1 -0.1)">
      <defs>
       <path d="M 41.703125 8.203125 
Q 38.09375 3.46875 33.171875 1.015625 
Q 28.265625 -1.421875 22.3125 -1.421875 
Q 14.015625 -1.421875 9.296875 4.171875 
Q 4.59375 9.765625 4.59375 19.578125 
Q 4.59375 27.484375 7.5 34.859375 
Q 10.40625 42.234375 15.828125 48.09375 
Q 19.34375 51.90625 23.90625 53.953125 
Q 28.46875 56 33.5 56 
Q 39.546875 56 43.453125 53.609375 
Q 47.359375 51.21875 49.125 46.390625 
L 50.6875 54.59375 
L 59.71875 54.59375 
L 45.125 -20.609375 
L 36.078125 -20.609375 
z
M 13.921875 20.90625 
Q 13.921875 13.671875 16.9375 9.890625 
Q 19.96875 6.109375 25.6875 6.109375 
Q 34.1875 6.109375 40.1875 14.234375 
Q 46.1875 22.359375 46.1875 33.984375 
Q 46.1875 41.015625 43.078125 44.75 
Q 39.984375 48.484375 34.1875 48.484375 
Q 29.9375 48.484375 26.3125 46.5 
Q 22.703125 44.53125 20.015625 40.71875 
Q 17.1875 36.71875 15.546875 31.34375 
Q 13.921875 25.984375 13.921875 20.90625 
z
" id="DejaVuSans-Oblique-113"/>
       <path d="M 10.59375 45.40625 
L 73.1875 45.40625 
L 73.1875 37.203125 
L 10.59375 37.203125 
z
M 10.59375 25.484375 
L 73.1875 25.484375 
L 73.1875 17.1875 
L 10.59375 17.1875 
z
" id="DejaVuSans-61"/>
      </defs>
      <use transform="translate(0 0.822031)" xlink:href="#DejaVuSans-Oblique-113"/>
      <use transform="translate(82.958984 0.822031)" xlink:href="#DejaVuSans-61"/>
      <use transform="translate(196.230469 56.8)scale(0.7)" xlink:href="#DejaVuSans-Oblique-114"/>
      <use transform="translate(225.009766 45.315625)scale(0.49)" xlink:href="#DejaVuSans-48"/>
      <use transform="translate(186.230469 -37.665469)scale(0.7)" xlink:href="#DejaVuSans-Oblique-82"/>
      <use transform="translate(234.868164 -49.149844)scale(0.49)" xlink:href="#DejaVuSans-48"/>
      <use transform="translate(299.939941 0.822031)" xlink:href="#DejaVuSans-61"/>
      <use transform="translate(403.211426 0.822031)" xlink:href="#DejaVuSans-48"/>
      <use transform="translate(466.834473 0.822031)" xlink:href="#DejaVuSans-46"/>
      <use transform="translate(498.621582 0.822031)" xlink:href="#DejaVuSans-49"/>
      <path d="M 186.230469 19.618906 
L 186.230469 25.868906 
L 267.95752 25.868906 
L 267.95752 19.618906 
L 186.230469 19.618906 
z
"/>
     </g>
    </g>
    <g id="line2d_38">
     <path d="M 532.123125 42 
L 552.123125 42 
" style="fill:none;stroke:#ff7f0e;stroke-linecap:square;stroke-width:1.5;"/>
    </g>
    <g id="line2d_39">
     <g>
      <use style="fill:#ff7f0e;stroke:#ff7f0e;" x="542.123125" xlink:href="#m33e48a075a" y="42"/>
     </g>
    </g>
    <g id="text_19">
     <!-- $q = \frac{r_0}{R_0} =$0.2 -->
     <g transform="translate(560.123125 45.5)scale(0.1 -0.1)">
      <use transform="translate(0 0.822031)" xlink:href="#DejaVuSans-Oblique-113"/>
      <use transform="translate(82.958984 0.822031)" xlink:href="#DejaVuSans-61"/>
      <use transform="translate(196.230469 56.8)scale(0.7)" xlink:href="#DejaVuSans-Oblique-114"/>
      <use transform="translate(225.009766 45.315625)scale(0.49)" xlink:href="#DejaVuSans-48"/>
      <use transform="translate(186.230469 -37.665469)scale(0.7)" xlink:href="#DejaVuSans-Oblique-82"/>
      <use transform="translate(234.868164 -49.149844)scale(0.49)" xlink:href="#DejaVuSans-48"/>
      <use transform="translate(299.939941 0.822031)" xlink:href="#DejaVuSans-61"/>
      <use transform="translate(403.211426 0.822031)" xlink:href="#DejaVuSans-48"/>
      <use transform="translate(466.834473 0.822031)" xlink:href="#DejaVuSans-46"/>
      <use transform="translate(493.121582 0.822031)" xlink:href="#DejaVuSans-50"/>
      <path d="M 186.230469 19.618906 
L 186.230469 25.868906 
L 267.95752 25.868906 
L 267.95752 19.618906 
L 186.230469 19.618906 
z
"/>
     </g>
    </g>
    <g id="line2d_40">
     <path d="M 532.123125 61.7 
L 552.123125 61.7 
" style="fill:none;stroke:#2ca02c;stroke-linecap:square;stroke-width:1.5;"/>
    </g>
    <g id="line2d_41">
     <g>
      <use style="fill:#2ca02c;stroke:#2ca02c;" x="542.123125" xlink:href="#m320a77c576" y="61.7"/>
     </g>
    </g>
    <g id="text_20">
     <!-- $q = \frac{r_0}{R_0} =$0.3 -->
     <g transform="translate(560.123125 65.2)scale(0.1 -0.1)">
      <use transform="translate(0 0.822031)" xlink:href="#DejaVuSans-Oblique-113"/>
      <use transform="translate(82.958984 0.822031)" xlink:href="#DejaVuSans-61"/>
      <use transform="translate(196.230469 56.8)scale(0.7)" xlink:href="#DejaVuSans-Oblique-114"/>
      <use transform="translate(225.009766 45.315625)scale(0.49)" xlink:href="#DejaVuSans-48"/>
      <use transform="translate(186.230469 -37.665469)scale(0.7)" xlink:href="#DejaVuSans-Oblique-82"/>
      <use transform="translate(234.868164 -49.149844)scale(0.49)" xlink:href="#DejaVuSans-48"/>
      <use transform="translate(299.939941 0.822031)" xlink:href="#DejaVuSans-61"/>
      <use transform="translate(403.211426 0.822031)" xlink:href="#DejaVuSans-48"/>
      <use transform="translate(466.834473 0.822031)" xlink:href="#DejaVuSans-46"/>
      <use transform="translate(498.621582 0.822031)" xlink:href="#DejaVuSans-51"/>
      <path d="M 186.230469 19.618906 
L 186.230469 25.868906 
L 267.95752 25.868906 
L 267.95752 19.618906 
L 186.230469 19.618906 
z
"/>
     </g>
    </g>
    <g id="line2d_42">
     <path d="M 532.123125 81.4 
L 552.123125 81.4 
" style="fill:none;stroke:#d62728;stroke-linecap:square;stroke-width:1.5;"/>
    </g>
    <g id="line2d_43">
     <g>
      <use style="fill:#d62728;stroke:#d62728;" x="542.123125" xlink:href="#m7e128bad53" y="81.4"/>
     </g>
    </g>
    <g id="text_21">
     <!-- $q = \frac{r_0}{R_0} =$0.4 -->
     <g transform="translate(560.123125 84.9)scale(0.1 -0.1)">
      <use transform="translate(0 0.822031)" xlink:href="#DejaVuSans-Oblique-113"/>
      <use transform="translate(82.958984 0.822031)" xlink:href="#DejaVuSans-61"/>
      <use transform="translate(196.230469 56.8)scale(0.7)" xlink:href="#DejaVuSans-Oblique-114"/>
      <use transform="translate(225.009766 45.315625)scale(0.49)" xlink:href="#DejaVuSans-48"/>
      <use transform="translate(186.230469 -37.665469)scale(0.7)" xlink:href="#DejaVuSans-Oblique-82"/>
      <use transform="translate(234.868164 -49.149844)scale(0.49)" xlink:href="#DejaVuSans-48"/>
      <use transform="translate(299.939941 0.822031)" xlink:href="#DejaVuSans-61"/>
      <use transform="translate(403.211426 0.822031)" xlink:href="#DejaVuSans-48"/>
      <use transform="translate(466.834473 0.822031)" xlink:href="#DejaVuSans-46"/>
      <use transform="translate(498.621582 0.822031)" xlink:href="#DejaVuSans-52"/>
      <path d="M 186.230469 19.618906 
L 186.230469 25.868906 
L 267.95752 25.868906 
L 267.95752 19.618906 
L 186.230469 19.618906 
z
"/>
     </g>
    </g>
    <g id="line2d_44">
     <path d="M 532.123125 101.1 
L 552.123125 101.1 
" style="fill:none;stroke:#9467bd;stroke-linecap:square;stroke-width:1.5;"/>
    </g>
    <g id="line2d_45">
     <g>
      <use style="fill:#9467bd;stroke:#9467bd;" x="542.123125" xlink:href="#m8b802e9a88" y="101.1"/>
     </g>
    </g>
    <g id="text_22">
     <!-- $q = \frac{r_0}{R_0} =$0.5 -->
     <g transform="translate(560.123125 104.6)scale(0.1 -0.1)">
      <use transform="translate(0 0.822031)" xlink:href="#DejaVuSans-Oblique-113"/>
      <use transform="translate(82.958984 0.822031)" xlink:href="#DejaVuSans-61"/>
      <use transform="translate(196.230469 56.8)scale(0.7)" xlink:href="#DejaVuSans-Oblique-114"/>
      <use transform="translate(225.009766 45.315625)scale(0.49)" xlink:href="#DejaVuSans-48"/>
      <use transform="translate(186.230469 -37.665469)scale(0.7)" xlink:href="#DejaVuSans-Oblique-82"/>
      <use transform="translate(234.868164 -49.149844)scale(0.49)" xlink:href="#DejaVuSans-48"/>
      <use transform="translate(299.939941 0.822031)" xlink:href="#DejaVuSans-61"/>
      <use transform="translate(403.211426 0.822031)" xlink:href="#DejaVuSans-48"/>
      <use transform="translate(466.834473 0.822031)" xlink:href="#DejaVuSans-46"/>
      <use transform="translate(498.621582 0.822031)" xlink:href="#DejaVuSans-53"/>
      <path d="M 186.230469 19.618906 
L 186.230469 25.868906 
L 267.95752 25.868906 
L 267.95752 19.618906 
L 186.230469 19.618906 
z
"/>
     </g>
    </g>
   </g>
  </g>
 </g>
 <defs>
  <clipPath id="pb1a71c4285">
   <rect height="271.8" width="558" x="67.423125" y="7.2"/>
  </clipPath>
 </defs>
</svg>
